<svg width="1000" height="1000" viewBox="0 0 1000 1000" fill="none" xmlns="http://www.w3.org/2000/svg">
<path d="M189.4 959C181.1 959 174.4 965.2 174.4 972.9C174.4 977.3 176.6 981.2 180 983.7V989L185.1 986.2C186.5 986.6 187.9 986.8 189.4 986.8C197.7 986.8 204.4 980.6 204.4 972.9C204.4 965.2 197.7 959 189.4 959ZM190.9 977.7L187.1 973.6L179.6 977.7L187.8 969L191.7 973.1L199.1 969L190.9 977.7Z" fill="white"/>
<path d="M121.9 972L146 962.7C147.1 962.3 148.1 963 147.7 964.7L143.6 984C143.3 985.4 142.5 985.7 141.3 985.1L135 980.5L132 983.4C131.7 983.7 131.4 984 130.7 984L131.1 977.6L142.7 967.1C143.2 966.7 142.6 966.4 141.9 966.8L127.6 975.8L121.4 973.9C120.2 973.6 120.2 972.7 121.9 972Z" fill="white"/>
<path d="M79.7 959.8C71.8 959.8 65.5 966.2 65.5 974C65.5 977.1 66.5 980 68.2 982.3L66.4 987.6L71.9 985.9C74.2 987.4 76.8 988.3 79.7 988.3C87.5 988.3 93.9 981.9 93.9 974.1C93.9 966.3 87.5 959.8 79.7 959.8ZM88 979.9C87.7 980.9 86.3 981.7 85.2 981.9C84.5 982.1 83.5 982.2 80.2 980.8C76 979.1 73.3 974.8 73.1 974.5C72.9 974.2 71.4 972.2 71.4 970.2C71.4 968.2 72.4 967.2 72.9 966.7C73.2 966.3 73.8 966.2 74.4 966.2C74.6 966.2 74.7 966.2 74.9 966.2C75.3 966.2 75.5 966.2 75.8 966.9C76.1 967.7 77 969.8 77.1 970C77.2 970.2 77.3 970.5 77.2 970.8C77.1 971.1 76.9 971.2 76.7 971.5C76.5 971.7 76.3 971.9 76.1 972.2C75.9 972.4 75.7 972.7 75.9 973.1C76.1 973.5 77 974.9 78.2 976C79.8 977.4 81.1 977.9 81.5 978.1C81.8 978.2 82.3 978.2 82.5 977.9C82.8 977.6 83.2 977 83.6 976.4C83.9 976 84.2 975.9 84.6 976.1C85 976.2 87 977.2 87.4 977.4C87.8 977.6 88.1 977.7 88.2 977.9C88.3 978.1 88.3 978.9 88 979.9Z" fill="white"/>
<path d="M27.6 958H21.2C15 958 10 963 10 969.2V974C10 978.3 12.5 982.3 16.4 984.1V989.5C16.4 990 17 990.2 17.3 989.9L21.9 985.3H27.5C33.7 985.3 38.7 980.3 38.7 974.1V969.3C38.8 963 33.8 958 27.6 958ZM31.8 979L30.2 980.6C28.5 982.3 24 980.4 20.1 976.4C16.2 972.4 14.5 967.9 16.1 966.2L17.7 964.6C18.3 964 19.3 964 20 964.6L22.3 967C23.1 967.8 22.8 969.3 21.7 969.6C20.9 969.8 20.4 970.7 20.7 971.4C21.1 973.2 23.3 975.4 25 975.8C25.8 976 26.6 975.6 26.9 974.8C27.3 973.7 28.7 973.4 29.5 974.2L31.8 976.6C32.4 977.3 32.4 978.3 31.8 979ZM25.8 965.6C25.6 965.6 25.5 965.6 25.3 965.6C25 965.6 24.7 965.4 24.7 965.1C24.7 964.8 24.9 964.5 25.2 964.5C25.4 964.5 25.6 964.5 25.8 964.5C28.7 964.5 31.1 966.9 31.1 969.8C31.1 970 31.1 970.2 31.1 970.4C31.1 970.7 30.8 970.9 30.5 970.9C30.2 970.9 30 970.6 30 970.3C30 970.1 30 970 30 969.8C30.1 967.5 28.2 965.6 25.8 965.6ZM29 969.9C29 970.2 28.8 970.4 28.5 970.4C28.2 970.4 28 970.2 28 969.9C28 968.7 27 967.8 25.9 967.8C25.6 967.8 25.4 967.6 25.4 967.3C25.4 967 25.6 966.8 25.9 966.8C27.6 966.7 29 968.1 29 969.9ZM33.1 971.6C33 971.9 32.7 972.1 32.4 972C32.1 971.9 32 971.6 32 971.4C32.1 970.9 32.2 970.4 32.2 969.9C32.2 966.4 29.3 963.5 25.8 963.5C25.6 963.5 25.5 963.5 25.3 963.5C25 963.5 24.7 963.3 24.7 963C24.7 962.7 24.9 962.4 25.2 962.4C25.4 962.4 25.6 962.4 25.8 962.4C29.9 962.4 33.3 965.8 33.3 969.9C33.3 970.4 33.2 971 33.1 971.6Z" fill="white"/>
<path d="M529.769 469.598H526.939V466.769C526.939 465.971 526.286 465.318 525.488 465.318C524.69 465.318 524.037 465.971 524.037 466.769V469.598H521.208C520.41 469.598 519.757 470.251 519.757 471.049C519.757 471.847 520.41 472.5 521.208 472.5H524.037V475.329C524.037 476.127 524.69 476.78 525.488 476.78C526.286 476.78 526.939 476.127 526.939 475.329V472.5H529.769C531.655 472.427 531.655 469.671 529.769 469.598Z" fill="#FFE11E"/>
<path d="M529.769 446.165H519.104C517.218 446.237 517.218 448.922 519.104 449.067H529.769C530.567 449.067 531.22 448.414 531.22 447.616C531.22 446.818 530.567 446.165 529.769 446.165Z" fill="#FFE11E"/>
<path d="M519.104 432.018H529.769C531.655 431.945 531.655 429.261 529.769 429.116H519.104C518.306 429.116 517.653 429.769 517.653 430.567C517.653 431.365 518.306 432.018 519.104 432.018Z" fill="#FFE11E"/>
<path d="M538.257 420.627C538.112 420.627 510.616 420.627 510.471 420.627C510.108 420.627 509.818 420.773 509.6 421.063L494.728 435.935C494.655 436.008 494.51 436.153 494.437 436.298C494.365 436.516 494.292 436.733 494.292 436.951V485.922C494.292 486.72 494.945 487.373 495.743 487.373H538.33C539.128 487.373 539.781 486.72 539.781 485.922V422.078C539.708 421.28 539.055 420.627 538.257 420.627ZM509.165 425.561V435.573H499.153L509.165 425.561ZM536.806 484.471H497.122V438.402H510.616C511.414 438.402 512.067 437.749 512.067 436.951V423.529H536.879V484.471H536.806Z" fill="#1A12E6"/>
<path d="M511.341 464.084C510.833 462.996 509.237 462.996 508.729 464.084L502.853 476.853C502.49 477.578 502.853 478.449 503.578 478.739C504.304 479.102 505.175 478.739 505.465 478.014L506.045 476.708H514.025L514.606 478.014C515.476 479.682 517.943 478.594 517.218 476.853L511.341 464.084ZM507.424 473.878L510.035 468.074L512.647 473.878H507.424Z" fill="#1A12E6"/>
<path d="M504.231 449.067H510.616C512.502 448.994 512.502 446.31 510.616 446.165H504.231C503.433 446.165 502.781 446.818 502.781 447.616C502.781 448.414 503.433 449.067 504.231 449.067Z" fill="#1A12E6"/>
<path d="M519.104 440.506H529.769C531.655 440.433 531.655 437.749 529.769 437.604H519.104C518.306 437.604 517.653 438.257 517.653 439.055C517.653 439.925 518.306 440.506 519.104 440.506Z" fill="#1A12E6"/>
<path d="M519.104 457.555H529.769C531.655 457.482 531.655 454.798 529.769 454.653H519.104C518.306 454.653 517.653 455.306 517.653 456.104C517.653 456.902 518.306 457.555 519.104 457.555Z" fill="#1A12E6"/>
<path d="M504.231 457.555H510.616C512.502 457.482 512.502 454.798 510.616 454.653H504.231C503.433 454.653 502.781 455.306 502.781 456.104C502.781 456.902 503.433 457.555 504.231 457.555Z" fill="#1A12E6"/>
<path d="M419.227 431.945H409.941C409.143 431.945 408.563 431.292 408.563 430.567C408.563 429.841 409.216 429.188 409.941 429.188H419.227C420.026 429.188 420.606 429.841 420.606 430.567C420.606 431.292 419.953 431.945 419.227 431.945Z" fill="#FFE11E"/>
<path d="M419.155 439.708H409.869C409.071 439.708 408.49 439.055 408.49 438.329C408.49 437.531 409.143 436.951 409.869 436.951H419.155C419.953 436.951 420.533 437.604 420.533 438.329C420.606 439.127 419.953 439.708 419.155 439.708Z" fill="#1A12E6"/>
<path d="M435.914 447.543H409.869C409.071 447.543 408.49 446.89 408.49 446.165C408.49 445.439 409.143 444.786 409.869 444.786H435.914C436.712 444.786 437.292 445.439 437.292 446.165C437.292 446.89 436.712 447.543 435.914 447.543Z" fill="#FFE11E"/>
<path d="M435.914 455.306H409.869C409.071 455.306 408.49 454.653 408.49 453.927C408.49 453.202 409.143 452.549 409.869 452.549H435.914C436.712 452.549 437.292 453.202 437.292 453.927C437.292 454.653 436.712 455.306 435.914 455.306Z" fill="#1A12E6"/>
<path d="M428.949 478.812H416.978C416.18 478.812 415.6 478.159 415.6 477.433C415.6 476.708 416.253 476.055 416.978 476.055H428.949C429.747 476.055 430.327 476.708 430.327 477.433C430.327 478.159 429.747 478.812 428.949 478.812Z" fill="#1A12E6"/>
<path d="M454.269 460.529H445.127V437.023C445.127 436.661 444.982 436.298 444.692 436.008L430.473 421.788C430.182 421.498 429.82 421.353 429.457 421.353H402.178C401.38 421.353 400.8 422.006 400.8 422.731V460.529H391.659C390.861 460.529 390.28 461.182 390.28 461.908V485.196C390.28 485.994 390.933 486.574 391.659 486.574H454.269C455.067 486.574 455.647 485.922 455.647 485.196V461.98C455.647 461.182 455.067 460.529 454.269 460.529ZM430.835 426.141L440.339 435.645H430.835V426.141ZM403.629 424.182H428.078V437.023C428.078 437.822 428.731 438.402 429.457 438.402H442.298V460.529H434.753C433.955 460.529 433.375 461.182 433.375 461.908V468.147H412.553V461.98C412.553 461.182 411.9 460.602 411.175 460.602H403.629V424.182ZM452.818 483.818H393.037V463.359H409.724V469.598C409.724 470.396 410.376 470.976 411.102 470.976H434.753C435.551 470.976 436.131 470.323 436.131 469.598V463.359H452.818V483.818Z" fill="#1A12E6"/>
<path d="M329 459.731C326.316 459.731 323.414 457.918 323.269 454C323.269 450.808 325.88 448.269 329 448.269C332.12 448.269 334.731 450.88 334.731 454C334.659 457.918 331.684 459.731 329 459.731ZM329 451.025C327.622 451.025 326.098 451.969 326.025 454C326.025 455.669 327.331 456.974 329 456.974C330.669 456.974 331.974 455.669 331.974 454C331.902 451.969 330.378 451.025 329 451.025Z" fill="#1A12E6"/>
<path d="M344.308 466.261C343.655 466.261 342.929 465.826 342.929 464.882V460.529C343.002 459.586 343.655 459.151 344.308 459.151C344.961 459.151 345.686 459.586 345.686 460.529V464.882C345.614 465.826 344.961 466.261 344.308 466.261Z" fill="#1A12E6"/>
<path d="M305.059 479.392C304.261 479.392 303.68 478.739 303.68 478.014V473.661C303.68 472.863 304.333 472.282 305.059 472.282C305.857 472.282 306.437 472.935 306.437 473.661V478.014C306.437 478.739 305.784 479.392 305.059 479.392Z" fill="#1A12E6"/>
<path d="M296.353 488.098C295.555 488.098 294.974 487.445 294.974 486.72C294.974 483.818 294.974 475.257 294.974 466.478C294.974 456.467 294.974 446.02 294.974 443.045C294.974 442.247 295.627 441.667 296.353 441.667H321.89L327.622 435.935V430.567C327.839 431.074 328.42 431.437 329 431.437H330.378V435.863L336.11 441.667H361.72C362.518 441.667 363.098 442.32 363.098 443.045C363.098 445.657 363.098 453.565 363.098 462.053C363.098 472.21 363.098 483.165 363.098 486.72C363.098 487.518 362.445 488.098 361.72 488.098H296.353ZM335.602 465.68C336.4 465.68 336.98 466.333 336.98 467.059V485.269H360.341V453.202H344.308C343.945 453.202 343.582 453.057 343.292 452.767L329 438.547L314.708 452.767C314.418 453.057 314.127 453.202 313.692 453.202H297.659V485.269H321.02V467.059C321.02 466.261 321.673 465.68 322.398 465.68H335.602ZM323.922 485.269H334.223V468.51H323.922V485.269ZM344.961 450.445H360.341V444.569H339.084L344.961 450.445ZM297.731 450.3H313.039L318.916 444.424H297.659V450.3H297.731Z" fill="#1A12E6"/>
<path d="M305.059 466.261C304.261 466.261 303.68 465.608 303.68 464.882V460.529C303.68 459.731 304.333 459.151 305.059 459.151C305.857 459.151 306.437 459.804 306.437 460.529V464.882C306.437 465.68 305.784 466.261 305.059 466.261Z" fill="#FFE11E"/>
<path d="M344.308 479.392C343.51 479.392 342.929 478.739 342.929 478.014V473.661C342.929 472.863 343.582 472.282 344.308 472.282C345.106 472.282 345.686 472.935 345.686 473.661V478.014C345.686 478.739 345.033 479.392 344.308 479.392Z" fill="#FFE11E"/>
<path d="M353.014 466.261C352.216 466.261 351.635 465.608 351.635 464.882V460.529C351.635 459.731 352.288 459.151 353.014 459.151C353.812 459.151 354.392 459.804 354.392 460.529V464.882C354.392 465.68 353.812 466.261 353.014 466.261Z" fill="#FFE11E"/>
<path d="M313.765 466.261C312.967 466.261 312.386 465.608 312.386 464.882V460.529C312.386 459.731 313.039 459.151 313.765 459.151C314.563 459.151 315.143 459.804 315.143 460.529V464.882C315.143 465.68 314.563 466.261 313.765 466.261Z" fill="#FFE11E"/>
<path d="M353.014 479.392C352.216 479.392 351.635 478.739 351.635 478.014V473.661C351.635 472.863 352.288 472.282 353.014 472.282C353.812 472.282 354.392 472.935 354.392 473.661V478.014C354.392 478.739 353.812 479.392 353.014 479.392Z" fill="#FFE11E"/>
<path d="M313.765 479.392C312.967 479.392 312.386 478.739 312.386 478.014V473.661C312.386 472.863 313.039 472.282 313.765 472.282C314.563 472.282 315.143 472.935 315.143 473.661V478.014C315.143 478.739 314.563 479.392 313.765 479.392Z" fill="#FFE11E"/>
<path d="M329 431.437C328.202 431.437 327.622 430.784 327.622 430.059V421.353C327.622 420.555 328.275 419.974 329 419.974H342.059C342.857 419.974 343.437 420.627 343.437 421.353V430.059C343.437 430.857 342.784 431.437 342.059 431.437H329ZM330.451 428.608H340.753V422.731H330.451V428.608Z" fill="#FFE11E"/>
<path d="M262.351 421.353H207.649C204.747 421.353 202.353 423.747 202.353 426.649V429.623C202.353 434.267 203.949 438.91 206.851 442.537C209.245 445.584 212.727 447.978 216.573 449.212L218.822 449.937C221.216 453.927 225.061 456.974 229.631 458.353V461.763C229.631 463.141 228.543 464.229 227.165 464.229C224.263 464.229 221.869 466.623 221.869 469.525V471.992H219.402C218.604 471.992 218.024 472.645 218.024 473.371V483.745H215.557C214.759 483.745 214.178 484.398 214.178 485.123C214.178 485.922 214.831 486.502 215.557 486.502H254.443C255.241 486.502 255.822 485.849 255.822 485.123C255.822 484.398 255.169 483.745 254.443 483.745H251.976V473.443C251.976 472.645 251.324 472.065 250.598 472.065H248.131V469.598C248.131 466.696 245.737 464.302 242.835 464.302C241.457 464.302 240.369 463.214 240.369 461.835V458.353C245.012 456.974 248.784 453.927 251.178 450.01L253.573 449.284C257.345 448.051 260.682 445.729 263.149 442.61C266.051 438.982 267.647 434.339 267.647 429.696V426.722C267.647 423.747 265.325 421.353 262.351 421.353ZM209.1 440.796C206.561 437.604 205.182 433.686 205.182 429.623V426.649C205.182 425.271 206.271 424.182 207.649 424.182H214.323L216.355 442.465C216.5 443.843 216.79 445.222 217.225 446.455C214.033 445.367 211.131 443.335 209.1 440.796ZM249.147 483.818H220.853V474.822H249.147V483.818ZM238.627 455.886C237.974 456.031 237.539 456.612 237.539 457.265V461.763C237.539 464.665 239.933 467.059 242.835 467.059C244.214 467.059 245.302 468.147 245.302 469.525V471.992H224.771V469.525C224.771 468.147 225.859 467.059 227.237 467.059C230.139 467.059 232.533 464.665 232.533 461.763V457.265C232.533 456.612 232.098 456.031 231.445 455.886C224.843 454.363 219.91 448.849 219.112 442.102L217.08 424.11H252.847L250.816 442.102C250.163 448.849 245.229 454.363 238.627 455.886ZM264.89 429.623C264.89 433.686 263.512 437.604 260.973 440.796C258.869 443.48 256.039 445.439 252.774 446.527C253.21 445.222 253.573 443.843 253.718 442.465L255.749 424.182H262.424C263.802 424.182 264.89 425.271 264.89 426.649V429.623Z" fill="#1A12E6"/>
<path d="M239.861 446.382C239.643 446.382 239.425 446.31 239.208 446.237L235.072 444.133L230.937 446.237C230.429 446.455 229.922 446.455 229.486 446.092C229.051 445.802 228.833 445.222 228.906 444.714L229.704 440.216L226.367 437.023C226.004 436.661 225.859 436.08 226.004 435.573C226.149 435.065 226.584 434.702 227.165 434.629L231.808 433.976L233.912 429.841C234.129 429.333 234.637 429.043 235.145 429.043C235.653 429.043 236.161 429.333 236.378 429.841L238.482 433.976L243.125 434.629C243.633 434.702 244.069 435.065 244.286 435.573C244.431 436.08 244.286 436.661 243.923 437.023L240.586 440.216L241.384 444.714C241.457 445.222 241.239 445.802 240.804 446.092C240.441 446.31 240.151 446.382 239.861 446.382ZM235 441.086C235.218 441.086 235.435 441.159 235.653 441.231L237.974 442.392L237.539 439.925C237.467 439.49 237.612 438.982 237.974 438.692L239.788 437.023L237.249 436.661C236.814 436.588 236.378 436.298 236.161 435.935L235 433.686L233.839 435.935C233.622 436.371 233.259 436.661 232.751 436.661L230.212 437.023L232.025 438.692C232.388 438.982 232.533 439.49 232.461 439.925L232.025 442.392L234.347 441.231C234.565 441.159 234.782 441.086 235 441.086Z" fill="#FFE11E"/>
<path d="M164.216 484.471H158.484V460.675H155.582V484.471H149.198C148.4 484.471 147.747 485.124 147.747 485.922C147.747 486.72 148.4 487.373 149.198 487.373H164.288C165.086 487.373 165.739 486.72 165.739 485.922C165.667 485.124 165.014 484.471 164.216 484.471Z" fill="#1A12E6"/>
<path d="M172.196 420.627H141.871C140.637 420.627 139.694 421.643 139.694 422.804V442.9H142.596V423.457H171.543V457.773H142.596V451.098H139.694V458.498C139.694 459.659 140.637 460.675 141.871 460.675H172.196C173.357 460.675 174.373 459.731 174.373 458.498V422.804C174.373 421.643 173.357 420.627 172.196 420.627Z" fill="#FFE11E"/>
<path d="M117.567 487.3C116.478 487.3 115.608 486.429 115.608 485.341V468.945H109.659C108.571 468.945 107.7 468.074 107.7 466.986V450.953C107.7 445.802 111.908 441.522 117.131 441.522H122.21V441.376C118.8 440.143 116.551 436.878 116.551 433.251C116.551 428.463 120.469 424.545 125.257 424.545C130.045 424.545 133.963 428.463 133.963 433.251C133.963 436.878 131.714 440.143 128.304 441.376V441.522H149.561L161.894 429.986C162.184 429.769 162.474 429.623 162.837 429.623C163.2 429.623 163.563 429.769 163.853 430.059C164.143 430.349 164.216 430.712 164.216 431.074C164.216 431.437 164.071 431.8 163.78 432.018L151.81 443.335V450.518C151.81 451.606 150.939 452.476 149.851 452.476H134.471V485.341C134.471 486.429 133.6 487.3 132.512 487.3H117.567ZM125.039 469.671C125.837 469.671 126.418 470.323 126.418 471.049V484.325H131.496V449.429H148.835V444.496H117.131C113.576 444.496 110.674 447.398 110.674 450.953V465.971H115.753V455.233C115.753 454.435 116.406 453.855 117.131 453.855C117.929 453.855 118.51 454.508 118.51 455.233V484.325H123.661V471.049C123.661 470.323 124.241 469.671 125.039 469.671ZM125.184 427.157C121.847 427.157 119.09 429.914 119.09 433.251C119.09 436.588 121.847 439.345 125.184 439.345C128.522 439.345 131.278 436.588 131.278 433.251C131.278 429.914 128.594 427.157 125.184 427.157Z" fill="#1A12E6"/>
<path d="M29.9509 489.549C28.9352 489.476 28.4999 488.751 28.4999 488.098C28.4999 487.445 28.9352 486.647 29.9509 486.647H31.6921L33.6509 480.771H33.5784C20.6646 479.9 14.7156 470.396 14.498 461.327C14.2803 452.622 19.9392 442.537 32.7078 441.159H32.8529L29.6607 437.967C27.9921 436.298 27.9921 433.541 29.6607 431.873L37.6411 423.892C38.4392 423.094 39.5274 422.659 40.6882 422.659C41.849 422.659 42.9372 423.094 43.7352 423.892L65.7176 445.875C66.5156 446.673 66.9509 447.761 66.9509 448.922C66.9509 450.082 66.5156 451.171 65.7176 451.969L57.7372 459.949C56.9392 460.747 55.8509 461.182 54.6901 461.182C53.5294 461.182 52.4411 460.747 51.6431 459.949L46.2745 454.508H46.2019C45.1862 455.016 43.9529 455.306 42.7196 455.306C40.2529 455.306 37.8588 454.29 36.3352 452.476H34.2313C29.5882 452.476 25.8156 456.249 25.8156 460.892C25.8156 465.535 29.5882 469.38 34.2313 469.38H78.0509C78.849 469.38 79.5019 470.033 79.5019 470.831C79.5019 471.629 78.849 472.282 78.0509 472.282H70.9411V472.355C70.2156 477.143 66.0078 480.771 61.147 480.771H54.6176L56.4313 486.647H58.1725C59.1882 486.72 59.6235 487.445 59.6235 488.098C59.6235 488.751 59.1882 489.549 58.1725 489.549H29.9509ZM34.8117 486.647H53.4568L48.7411 472.282H39.5274L34.8117 486.647ZM53.6019 477.869H61.0745C64.3392 477.869 67.2411 475.547 67.9666 472.355V472.282H51.7882L53.6019 477.869ZM34.2313 443.988C29.7333 443.988 25.4529 445.729 22.2607 448.922C19.0686 452.114 17.2548 456.394 17.2548 460.892C17.2548 470.251 24.8725 477.796 34.1588 477.796H34.5215L36.3352 472.21H34.1588C27.9196 472.21 22.7686 467.131 22.7686 460.82C22.7686 457.773 23.9294 454.943 26.1058 452.767C28.2823 450.59 31.1117 449.429 34.1588 449.429H34.5215V449.357C33.9411 447.688 33.9411 445.657 34.5215 443.988V443.916L34.2313 443.988ZM42.5745 438.257C44.896 438.257 47.145 439.2 48.8137 440.869C50.4098 442.465 51.2078 444.496 51.2078 446.818C51.2078 449.067 50.3372 451.171 48.7411 452.839L48.6686 452.912L53.747 457.99C54.0372 458.28 54.3274 458.425 54.6901 458.425C55.0529 458.425 55.4156 458.28 55.6333 457.99L63.6137 450.01C63.8313 449.792 64.049 449.429 64.049 449.067C64.049 448.704 63.9039 448.341 63.6137 448.124L41.7039 425.924C41.4137 425.633 41.1235 425.488 40.7607 425.488C40.398 425.488 40.0352 425.633 39.8176 425.924L31.8372 433.904C31.3294 434.412 31.3294 435.282 31.8372 435.863L36.698 440.724L36.7705 440.651C38.2941 439.127 40.3254 438.257 42.5745 438.257ZM42.7196 441.159C39.5999 441.159 37.1333 443.698 37.1333 446.745C37.1333 449.792 39.6725 452.331 42.7196 452.331C45.8392 452.331 48.3058 449.792 48.3058 446.745C48.3058 443.698 45.7666 441.159 42.7196 441.159Z" fill="#1A12E6"/>
<path d="M44.098 480.771C43.2999 480.771 42.647 480.118 42.647 479.32C42.647 478.522 43.2999 477.869 44.098 477.869C44.896 477.869 45.5489 478.522 45.5489 479.32C45.5489 480.118 44.896 480.771 44.098 480.771Z" fill="#1A12E6"/>
<path d="M24.5097 426.722C24.0744 426.141 24.147 425.343 24.6548 424.835L30.6764 418.814C30.9666 418.596 31.3293 418.451 31.6921 418.451C31.9822 418.451 32.2724 418.523 32.5626 418.741L38.5842 423.022C38.0038 423.312 37.3509 424.037 36.7705 424.545C36.6254 424.69 36.4803 424.835 36.3352 424.98L31.8372 421.788L27.5568 426.069L30.7489 430.567C30.6038 430.712 30.4587 430.857 30.3136 431.002C29.7332 431.51 29.0803 432.235 28.7901 432.816L24.5097 426.722Z" fill="#FFE11E"/>
<path d="M63.6862 465.39C63.3234 465.39 62.9607 465.245 62.6705 464.955L57.8097 460.094C57.8097 460.094 58.7528 459.151 59.8411 458.063L63.6862 461.908L67.6038 457.99L63.7587 454.145C64.992 452.912 65.645 452.259 65.7901 452.114L70.6509 456.974C71.2313 457.555 71.2313 458.498 70.6509 459.006L64.6293 465.027C64.4842 465.245 64.1215 465.39 63.6862 465.39Z" fill="#FFE11E"/>
<path d="M160 387C147.86 387 138 377.14 138 365C138 352.86 147.86 343 160 343C172.14 343 182 352.86 182 365C182 377.14 172.14 387 160 387Z" fill="url(#paint0_linear_9_434)"/>
<path d="M166.64 350.928H153.36C149.297 350.928 145.928 354.248 145.928 358.36V371.64C145.928 375.703 149.248 379.072 153.36 379.072H166.64C170.703 379.072 174.072 375.752 174.072 371.64V358.36C174.023 354.248 170.703 350.928 166.64 350.928ZM171.496 371.64C171.496 374.315 169.315 376.496 166.64 376.496H153.36C150.685 376.496 148.505 374.315 148.505 371.64V358.36C148.505 355.685 150.685 353.505 153.36 353.505H166.64C169.315 353.505 171.496 355.685 171.496 358.36V371.64Z" fill="white"/>
<path d="M160 357.32C155.788 357.32 152.32 360.739 152.32 365C152.32 369.261 155.739 372.68 160 372.68C164.212 372.68 167.68 369.261 167.68 365C167.68 360.739 164.212 357.32 160 357.32ZM160 370.104C157.176 370.104 154.896 367.824 154.896 365C154.896 362.176 157.176 359.896 160 359.896C162.824 359.896 165.104 362.176 165.104 365C165.104 367.824 162.824 370.104 160 370.104Z" fill="white"/>
<path d="M167.482 355.932C166.59 355.932 165.896 356.626 165.896 357.518C165.896 358.41 166.59 359.104 167.482 359.104C168.374 359.104 169.068 358.41 169.068 357.518C169.068 356.626 168.324 355.932 167.482 355.932Z" fill="white"/>
<path d="M96 387C83.8604 387 74 377.14 74 365C74 352.86 83.8604 343 96 343C108.14 343 118 352.86 118 365C118 377.14 108.189 387 96 387Z" fill="url(#paint1_linear_9_434)"/>
<path d="M109.032 361.086L108.982 360.045C108.883 357.914 107.149 356.18 105.018 356.081L98.973 355.833C96.991 355.734 95.009 355.734 93.0766 355.833L87.0811 356.032C84.9009 356.081 83.1667 357.815 83.0676 359.996L83.018 361.135C82.919 363.712 82.919 366.338 83.018 368.914L83.0676 370.054C83.1667 372.234 84.9009 373.919 87.0811 374.018L93.3739 374.216C95.1577 374.266 96.9415 374.266 98.7748 374.216L105.068 374.018C107.248 373.968 108.982 372.234 109.081 370.054L109.131 368.914C109.18 366.288 109.18 363.712 109.032 361.086ZM93.3739 368.815V361.036L100.063 365L93.3739 368.815Z" fill="white"/>
<path d="M32 387C19.8604 387 10 377.14 10 365C10 352.86 19.8604 343 32 343C44.1396 343 54 352.86 54 365C54 377.14 44.1396 387 32 387Z" fill="url(#paint2_linear_9_434)"/>
<path d="M45.2297 356.775C44.1892 357.27 43.1487 357.568 42.1577 357.568C43.2973 356.874 44.0406 355.883 44.5361 354.595C43.2973 355.288 42.1081 355.784 41.0676 355.883C40.0766 354.842 38.6892 354.198 37.1532 354.198C34.1306 354.198 31.7027 356.626 31.7027 359.649C31.7027 360.095 31.7523 360.541 31.8514 360.937C26.946 360.64 23.2297 358.608 20.455 355.189C19.1667 358.014 19.5135 360.491 22.2388 362.523C21.3469 362.523 20.5045 362.324 19.7613 361.829C19.8604 364.554 21.2478 366.387 24.1712 367.23C23.4279 367.478 22.6352 367.478 21.7433 367.378C22.5361 369.608 24.2207 370.847 26.8469 371.095C24.6171 372.878 21.9415 373.671 18.8694 373.423C28.6306 379.518 42.6532 373.473 42.6532 359.599C42.6532 359.55 42.6532 359.5 42.6532 359.45C43.4955 358.856 44.3874 357.914 45.2297 356.775Z" fill="white"/>
<path d="M785 274.012H721V261.138C721 260.529 721.494 260.034 722.103 260.034H783.897C784.506 260.034 785 260.529 785 261.138L785 274.012Z" fill="#82AFFF"/>
<path d="M783.896 301.965H722.103C721.494 301.965 721 301.471 721 300.862V287.989H785V300.862C785 301.472 784.506 301.965 783.896 301.965Z" fill="#73AF00"/>
<path d="M785 274.011H721V287.988H785V274.011Z" fill="#F5F5F5"/>
<path d="M785 272.77H721V274.513H785V272.77Z" fill="#FF4B55"/>
<path d="M785 287.486H721V289.229H785V287.486Z" fill="#FF4B55"/>
<path d="M735.186 270.509C732.927 270.509 731.096 268.682 731.096 266.431C731.096 264.172 732.927 262.337 735.186 262.337C735.195 262.337 735.204 262.337 735.212 262.337C735.345 262.339 735.392 262.162 735.275 262.1C734.579 261.727 733.785 261.516 732.941 261.522C730.238 261.541 728.042 263.781 728.071 266.484C728.099 269.159 730.286 271.324 732.976 271.324C733.809 271.324 734.592 271.114 735.279 270.746C735.395 270.683 735.348 270.507 735.216 270.509C735.206 270.509 735.196 270.509 735.186 270.509Z" fill="#F5F5F5"/>
<path d="M738.389 269.381L738.206 269.929L737.629 269.934C737.554 269.934 737.523 270.03 737.583 270.074L738.048 270.417L737.874 270.967C737.851 271.039 737.932 271.098 737.993 271.054L738.463 270.718L738.933 271.054C738.994 271.098 739.075 271.039 739.052 270.967L738.878 270.417L739.342 270.074C739.402 270.03 739.371 269.934 739.297 269.934L738.719 269.929L738.537 269.381C738.513 269.311 738.413 269.311 738.389 269.381Z" fill="#F5F5F5"/>
<path d="M742.457 269.381L742.274 269.929L741.697 269.934C741.622 269.934 741.591 270.03 741.651 270.074L742.116 270.417L741.941 270.967C741.919 271.039 742 271.098 742.061 271.054L742.531 270.718L743 271.054C743.061 271.098 743.142 271.039 743.12 270.967L742.946 270.417L743.41 270.074C743.47 270.03 743.439 269.934 743.364 269.934L742.787 269.929L742.604 269.381C742.581 269.311 742.48 269.311 742.457 269.381Z" fill="#F5F5F5"/>
<path d="M746.525 269.381L746.342 269.929L745.765 269.934C745.69 269.934 745.659 270.03 745.719 270.074L746.184 270.417L746.009 270.967C745.987 271.039 746.068 271.098 746.129 271.054L746.599 270.718L747.068 271.054C747.129 271.098 747.21 271.039 747.188 270.967L747.014 270.417L747.478 270.074C747.538 270.03 747.507 269.934 747.432 269.934L746.855 269.929L746.672 269.381C746.649 269.311 746.548 269.311 746.525 269.381Z" fill="#F5F5F5"/>
<path d="M750.592 269.381L750.41 269.929L749.832 269.934C749.758 269.934 749.727 270.03 749.787 270.074L750.251 270.417L750.077 270.967C750.054 271.039 750.136 271.098 750.196 271.054L750.666 270.718L751.136 271.054C751.197 271.098 751.278 271.039 751.255 270.967L751.081 270.417L751.546 270.074C751.606 270.03 751.575 269.934 751.5 269.934L750.923 269.929L750.74 269.381C750.716 269.311 750.616 269.311 750.592 269.381Z" fill="#F5F5F5"/>
<path d="M754.66 269.381L754.478 269.929L753.9 269.934C753.826 269.934 753.795 270.03 753.855 270.074L754.319 270.417L754.145 270.967C754.122 271.039 754.204 271.098 754.264 271.054L754.734 270.718L755.204 271.054C755.265 271.098 755.346 271.039 755.323 270.967L755.149 270.417L755.614 270.074C755.674 270.03 755.643 269.934 755.568 269.934L754.991 269.929L754.808 269.381C754.784 269.311 754.684 269.311 754.66 269.381Z" fill="#F5F5F5"/>
<path d="M742.457 265.585L742.274 266.133L741.697 266.137C741.622 266.137 741.591 266.233 741.651 266.277L742.116 266.62L741.941 267.171C741.919 267.242 742 267.301 742.061 267.258L742.531 266.922L743 267.258C743.061 267.301 743.142 267.242 743.12 267.171L742.946 266.62L743.41 266.277C743.47 266.233 743.439 266.137 743.364 266.137L742.787 266.133L742.604 265.585C742.581 265.514 742.48 265.514 742.457 265.585Z" fill="#F5F5F5"/>
<path d="M746.525 265.585L746.342 266.133L745.765 266.137C745.69 266.137 745.659 266.233 745.719 266.277L746.184 266.62L746.009 267.171C745.987 267.242 746.068 267.301 746.129 267.258L746.599 266.922L747.068 267.258C747.129 267.301 747.21 267.242 747.188 267.171L747.014 266.62L747.478 266.277C747.538 266.233 747.507 266.137 747.432 266.137L746.855 266.133L746.672 265.585C746.649 265.514 746.548 265.514 746.525 265.585Z" fill="#F5F5F5"/>
<path d="M750.592 265.585L750.41 266.133L749.832 266.137C749.758 266.137 749.727 266.233 749.787 266.277L750.251 266.62L750.077 267.171C750.054 267.242 750.136 267.301 750.196 267.258L750.666 266.922L751.136 267.258C751.197 267.301 751.278 267.242 751.255 267.171L751.081 266.62L751.546 266.277C751.606 266.233 751.575 266.137 751.5 266.137L750.923 266.133L750.74 265.585C750.716 265.514 750.616 265.514 750.592 265.585Z" fill="#F5F5F5"/>
<path d="M754.66 265.585L754.478 266.133L753.9 266.137C753.826 266.137 753.795 266.233 753.855 266.277L754.319 266.62L754.145 267.171C754.122 267.242 754.204 267.301 754.264 267.258L754.734 266.922L755.204 267.258C755.265 267.301 755.346 267.242 755.323 267.171L755.149 266.62L755.614 266.277C755.674 266.233 755.643 266.137 755.568 266.137L754.991 266.133L754.808 265.585C754.784 265.514 754.684 265.514 754.66 265.585Z" fill="#F5F5F5"/>
<path d="M746.525 269.381L746.342 269.929L745.765 269.934C745.69 269.934 745.659 270.03 745.719 270.074L746.184 270.417L746.009 270.967C745.987 271.039 746.068 271.098 746.129 271.054L746.599 270.718L747.068 271.054C747.129 271.098 747.21 271.039 747.188 270.967L747.014 270.417L747.478 270.074C747.538 270.03 747.507 269.934 747.432 269.934L746.855 269.929L746.672 269.381C746.649 269.311 746.548 269.311 746.525 269.381Z" fill="#F5F5F5"/>
<path d="M746.525 261.788L746.342 262.336L745.765 262.34C745.69 262.341 745.659 262.436 745.719 262.481L746.184 262.824L746.009 263.374C745.987 263.445 746.068 263.504 746.129 263.461L746.599 263.125L747.068 263.461C747.129 263.504 747.21 263.445 747.188 263.374L747.014 262.824L747.478 262.481C747.538 262.436 747.507 262.341 747.432 262.34L746.855 262.336L746.672 261.788C746.649 261.717 746.548 261.717 746.525 261.788Z" fill="#F5F5F5"/>
<path d="M750.592 269.381L750.41 269.929L749.832 269.934C749.758 269.934 749.727 270.03 749.787 270.074L750.251 270.417L750.077 270.967C750.054 271.039 750.136 271.098 750.196 271.054L750.666 270.718L751.136 271.054C751.197 271.098 751.278 271.039 751.255 270.967L751.081 270.417L751.546 270.074C751.606 270.03 751.575 269.934 751.5 269.934L750.923 269.929L750.74 269.381C750.716 269.311 750.616 269.311 750.592 269.381Z" fill="#F5F5F5"/>
<path d="M754.66 269.381L754.478 269.929L753.9 269.934C753.826 269.934 753.795 270.03 753.855 270.074L754.319 270.417L754.145 270.967C754.122 271.039 754.204 271.098 754.264 271.054L754.734 270.718L755.204 271.054C755.265 271.098 755.346 271.039 755.323 270.967L755.149 270.417L755.614 270.074C755.674 270.03 755.643 269.934 755.568 269.934L754.991 269.929L754.808 269.381C754.784 269.311 754.684 269.311 754.66 269.381Z" fill="#F5F5F5"/>
<path d="M750.592 261.788L750.41 262.336L749.832 262.34C749.758 262.341 749.727 262.436 749.787 262.481L750.251 262.824L750.077 263.374C750.054 263.445 750.136 263.504 750.196 263.461L750.666 263.125L751.136 263.461C751.197 263.504 751.278 263.445 751.255 263.374L751.081 262.824L751.546 262.481C751.606 262.436 751.575 262.341 751.5 262.34L750.923 262.336L750.74 261.788C750.716 261.717 750.616 261.717 750.592 261.788Z" fill="#F5F5F5"/>
<path d="M754.66 261.788L754.478 262.336L753.9 262.34C753.826 262.341 753.795 262.436 753.855 262.481L754.319 262.824L754.145 263.374C754.122 263.445 754.204 263.504 754.264 263.461L754.734 263.125L755.204 263.461C755.265 263.504 755.346 263.445 755.323 263.374L755.149 262.824L755.614 262.481C755.674 262.436 755.643 262.341 755.568 262.34L754.991 262.336L754.808 261.788C754.784 261.717 754.684 261.717 754.66 261.788Z" fill="#F5F5F5"/>
<path d="M704.896 301.965H643.103C642.494 301.965 642 301.471 642 300.862V261.138C642 260.529 642.494 260.034 643.103 260.034H704.897C705.506 260.034 706 260.529 706 261.138V300.862C706 301.471 705.506 301.965 704.896 301.965Z" fill="#41479B"/>
<path d="M706 267.759H642V294.241H706V267.759Z" fill="#F5F5F5"/>
<path d="M679.734 281L682.6 276.035H676.867L674 271.069L671.133 276.035H665.4L668.266 281L665.4 285.965H671.133L674 290.931L676.867 285.965H682.6L679.734 281ZM679.788 277.659L678.796 279.376L677.804 277.659H679.788ZM677.859 281L675.929 284.341H672.07L670.141 281L672.07 277.659H675.93L677.859 281ZM674 274.317L674.992 276.035H673.008L674 274.317ZM668.212 277.659H670.195L669.204 279.376L668.212 277.659ZM668.212 284.341L669.204 282.624L670.195 284.341H668.212ZM674 287.683L673.008 285.965H674.992L674 287.683ZM678.796 282.624L679.788 284.341H677.805L678.796 282.624Z" fill="#41479B"/>
<path d="M627 274.012H563V261.138C563 260.529 563.494 260.034 564.103 260.034H625.897C626.506 260.034 627 260.529 627 261.138L627 274.012Z" fill="#FF4B55"/>
<path d="M625.896 301.965H564.103C563.494 301.965 563 301.471 563 300.862V287.989H627V300.862C627 301.472 626.506 301.965 625.896 301.965Z" fill="#464655"/>
<path d="M627 274.011H563V287.988H627V274.011Z" fill="#F5F5F5"/>
<path d="M598.523 278.821C598.523 278.274 597.987 277.888 597.468 278.061L596.493 278.386L596.256 276.955C596.114 276.102 595.383 275.483 594.517 275.483H593.605L592.651 276.657H593.914L593.561 278.404L592.532 278.061C592.013 277.888 591.477 278.274 591.477 278.821V284.756L592.897 283.335L592.228 285.343H591.477V286.518H598.523V285.343H597.772L597.103 283.335L598.523 284.756V278.821H598.523ZM594.413 285.343H593.466L594.117 283.604L594.413 283.982V285.343ZM595.587 285.343V283.982L595.883 283.604L596.534 285.343H595.587ZM595 283.214C595 283.214 593.183 281.985 593.257 279.691C593.257 279.691 594.376 279.507 595 278.516C595.624 279.507 596.743 279.691 596.743 279.691C596.817 281.985 595 283.214 595 283.214Z" fill="#F0C727"/>
<path d="M546.896 301.965H485.103C484.494 301.965 484 301.471 484 300.862V261.138C484 260.529 484.494 260.034 485.103 260.034H546.897C547.506 260.034 548 260.529 548 261.138V300.862C548 301.471 547.506 301.965 546.896 301.965Z" fill="#FF4B55"/>
<path d="M515.684 277.219L517.414 279.482L520.115 278.578C520.266 278.527 520.394 278.698 520.304 278.829L518.686 281.173L520.381 283.462C520.475 283.59 520.353 283.765 520.2 283.72L517.471 282.906L515.817 285.225C515.725 285.354 515.52 285.292 515.517 285.132L515.447 282.285L512.731 281.429C512.579 281.381 512.575 281.168 512.726 281.115L515.412 280.169L515.387 277.321C515.385 277.162 515.588 277.093 515.684 277.219Z" fill="#F5F5F5"/>
<path d="M506.119 289.833C501.245 289.833 497.291 285.879 497.291 281C497.291 276.13 501.245 272.167 506.119 272.167C507.933 272.167 509.605 272.725 510.999 273.669C511.212 273.813 511.456 273.533 511.277 273.347C509.194 271.182 506.246 269.861 502.978 269.972C497.362 270.164 492.713 274.666 492.354 280.274C491.943 286.697 497.029 292.034 503.361 292.034C506.48 292.034 509.283 290.73 511.285 288.645C511.462 288.461 511.218 288.185 511.006 288.328C509.611 289.274 507.936 289.833 506.119 289.833Z" fill="#F5F5F5"/>
<path d="M467.896 301.965H406.103C405.494 301.965 405 301.471 405 300.862V261.138C405 260.529 405.494 260.034 406.103 260.034H467.897C468.506 260.034 469 260.529 469 261.138V300.862C469 301.471 468.506 301.965 467.896 301.965Z" fill="#FF4B55"/>
<path d="M415.626 266.592L416.678 269.746L420.003 269.772C420.433 269.775 420.612 270.324 420.265 270.58L417.591 272.555L418.594 275.725C418.723 276.136 418.256 276.475 417.906 276.225L415.201 274.291L412.496 276.225C412.146 276.475 411.678 276.136 411.808 275.725L412.811 272.555L410.136 270.58C409.79 270.324 409.968 269.775 410.399 269.772L413.724 269.746L414.776 266.592C414.912 266.183 415.49 266.183 415.626 266.592Z" fill="#FFE15A"/>
<path d="M427.7 267.369L428.454 268.398L429.672 268.017C429.829 267.968 429.959 268.147 429.862 268.281L429.117 269.316L429.855 270.357C429.951 270.491 429.82 270.67 429.663 270.62L428.448 270.231L427.687 271.254C427.588 271.387 427.378 271.318 427.377 271.153L427.371 269.877L426.163 269.469C426.006 269.417 426.007 269.195 426.164 269.143L427.375 268.744L427.389 267.468C427.391 267.303 427.602 267.236 427.7 267.369Z" fill="#FFE15A"/>
<path d="M423.107 264.303L424.375 264.44L424.916 263.285C424.986 263.136 425.206 263.161 425.24 263.323L425.501 264.572L426.767 264.729C426.931 264.749 426.974 264.967 426.831 265.049L425.724 265.683L425.965 266.935C425.997 267.097 425.803 267.206 425.681 267.095L424.736 266.238L423.62 266.855C423.475 266.934 423.312 266.784 423.38 266.634L423.903 265.47L422.971 264.599C422.851 264.486 422.943 264.285 423.107 264.303Z" fill="#FFE15A"/>
<path d="M425.112 276.664L424.358 277.693L423.14 277.312C422.983 277.263 422.853 277.443 422.949 277.577L423.695 278.612L422.956 279.652C422.861 279.786 422.992 279.965 423.149 279.915L424.364 279.526L425.125 280.55C425.223 280.682 425.434 280.613 425.435 280.448L425.44 279.172L426.649 278.765C426.806 278.712 426.805 278.49 426.648 278.439L425.437 278.039L425.422 276.764C425.42 276.599 425.21 276.531 425.112 276.664Z" fill="#FFE15A"/>
<path d="M429.704 273.783L428.436 273.921L427.895 272.766C427.825 272.616 427.605 272.642 427.571 272.803L427.31 274.052L426.045 274.209C425.881 274.23 425.837 274.447 425.981 274.529L427.087 275.163L426.846 276.415C426.815 276.578 427.008 276.686 427.13 276.575L428.075 275.718L429.192 276.335C429.336 276.415 429.499 276.264 429.432 276.114L428.909 274.95L429.84 274.079C429.961 273.967 429.869 273.765 429.704 273.783Z" fill="#FFE15A"/>
<path d="M390 259.666H326V302.334H390V259.666Z" fill="#F0F0F0"/>
<path d="M347.333 259.666H326V302.334H347.333V259.666Z" fill="#6DA544"/>
<path d="M390 259.666H368.667V302.334H390V259.666Z" fill="#6DA544"/>
<path d="M247 287.988H311V300.862C311 301.471 310.506 301.965 309.896 301.965H248.103C247.494 301.965 247 301.471 247 300.862V287.988Z" fill="#73AF00"/>
<path d="M248.103 260.034H309.897C310.506 260.034 311 260.529 311 261.138V274.011H247V261.138C247 260.529 247.494 260.034 248.103 260.034Z" fill="#82AFFF"/>
<path d="M311 274.011H247V287.987H311V274.011Z" fill="#FF4B55"/>
<path d="M280.505 285.576C278.029 285.576 276.02 283.567 276.02 281.089C276.02 278.615 278.029 276.601 280.505 276.601C281.426 276.601 282.276 276.885 282.984 277.364C283.092 277.438 283.216 277.295 283.125 277.201C282.067 276.101 280.569 275.429 278.909 275.486C276.056 275.583 273.694 277.871 273.512 280.72C273.303 283.983 275.887 286.694 279.104 286.694C280.688 286.694 282.112 286.032 283.129 284.973C283.219 284.879 283.095 284.739 282.988 284.812C282.279 285.292 281.428 285.576 280.505 285.576Z" fill="#F5F5F5"/>
<path d="M284.431 278.326L284.897 279.635L286.151 279.039C286.246 278.994 286.344 279.092 286.299 279.187L285.703 280.441L287.011 280.906C287.11 280.941 287.11 281.081 287.011 281.116L285.703 281.581L286.299 282.835C286.344 282.93 286.246 283.029 286.151 282.984L284.897 282.387L284.431 283.696C284.396 283.794 284.257 283.794 284.222 283.696L283.757 282.387L282.502 282.984C282.408 283.029 282.309 282.93 282.354 282.835L282.95 281.581L281.642 281.116C281.543 281.081 281.543 280.941 281.642 280.906L282.95 280.441L282.354 279.187C282.309 279.092 282.408 278.994 282.502 279.039L283.757 279.635L284.222 278.326C284.257 278.228 284.396 278.228 284.431 278.326Z" fill="#F5F5F5"/>
<path d="M230.896 301.965H169.103C168.494 301.965 168 301.471 168 300.861V261.138C168 260.528 168.494 260.034 169.103 260.034H230.897C231.506 260.034 232 260.528 232 261.138V300.861C232 301.471 231.506 301.965 230.896 301.965Z" fill="#73AF00"/>
<path d="M187.862 260.035H176.828V301.966H187.862V260.035Z" fill="#FF4B55"/>
<path d="M186.759 264.816L184.552 266.655H180.138L177.931 264.816V262.977L180.138 261.138H184.552L186.759 262.977V264.816Z" fill="#F5F5F5"/>
<path d="M186.759 280.264L184.552 282.103H180.138L177.931 280.264V278.425L180.138 276.586H184.552L186.759 278.425V280.264Z" fill="#73AF00"/>
<path d="M186.759 272.54L184.552 274.379H180.138L177.931 272.54V270.701L180.138 268.862H184.552L186.759 270.701V272.54Z" fill="#73AF00"/>
<path d="M186.759 287.988L184.552 289.827H180.138L177.931 287.988V286.149L180.138 284.31H184.552L186.759 286.149V287.988Z" fill="#73AF00"/>
<path d="M176.828 265.551L179.035 267.758L176.828 269.965V265.551Z" fill="#FFB400"/>
<path d="M187.862 269.965L185.655 267.758L187.862 265.551V269.965Z" fill="#FFB400"/>
<path d="M176.828 273.275L179.035 275.482L176.828 277.689V273.275Z" fill="#FFB400"/>
<path d="M187.862 277.689L185.655 275.482L187.862 273.275V277.689Z" fill="#FFB400"/>
<path d="M176.828 281L179.035 283.206L176.828 285.413V281Z" fill="#FFB400"/>
<path d="M187.862 285.413L185.655 283.206L187.862 281V285.413Z" fill="#FFB400"/>
<path d="M176.828 288.724L179.035 290.931L176.828 293.137V288.724Z" fill="#FFB400"/>
<path d="M187.862 293.137L185.655 290.931L187.862 288.724V293.137Z" fill="#FFB400"/>
<path d="M176.828 260.034H179.035L176.828 262.241V260.034Z" fill="#FFB400"/>
<path d="M187.862 262.241L185.655 260.034H187.862V262.241Z" fill="#FFB400"/>
<path d="M182.896 268.862H181.792V274.38H182.896V268.862Z" fill="#FFB400"/>
<path d="M184.551 271.068H180.137V272.172H184.551V271.068Z" fill="#FF4B55"/>
<path d="M185.655 269.781L184.552 268.862V274.379L185.655 273.459V269.781Z" fill="#FFB400"/>
<path d="M179.035 273.459L180.138 274.379V268.862L179.035 269.781V273.459Z" fill="#FFB400"/>
<path d="M182.345 261.138H180.138L177.931 262.977V263.896H182.345V261.138Z" fill="#FFB400"/>
<path d="M182.345 266.655H184.552L186.759 264.816V263.896H182.345V266.655Z" fill="#FFB400"/>
<path d="M182.345 265.551L180.138 263.903L182.345 262.241L184.552 263.903L182.345 265.551Z" fill="#FF4B55"/>
<path d="M182.345 265.551L184.552 263.903L184.543 263.896H182.345V265.551Z" fill="#73AF00"/>
<path d="M182.345 263.896V262.241L180.147 263.896H182.345Z" fill="#73AF00"/>
<path d="M184.551 277.69H180.137V281H184.551V277.69Z" fill="#FF4B55"/>
<path d="M185.655 278.792H184.551V279.896H185.655V278.792Z" fill="#FFB400"/>
<path d="M182.896 278.792H181.792V279.896H182.896V278.792Z" fill="#F5F5F5"/>
<path d="M182.896 285.413H181.792V286.517H182.896V285.413Z" fill="#FF4B55"/>
<path d="M184.552 286.517H183.449V287.621H184.552V286.517Z" fill="#FFB400"/>
<path d="M181.241 286.517H180.137V287.621H181.241V286.517Z" fill="#FFB400"/>
<path d="M182.896 287.62H181.792V288.723H182.896V287.62Z" fill="#FF4B55"/>
<path d="M180.139 278.792H179.035V279.896H180.139V278.792Z" fill="#FFB400"/>
<path d="M186.759 295.712L184.552 297.551H180.138L177.931 295.712V293.873L180.138 292.034H184.552L186.759 293.873V295.712Z" fill="#F5F5F5"/>
<path d="M182.345 292.034H180.138L177.931 293.873V294.793H182.345V292.034Z" fill="#FFB400"/>
<path d="M182.345 297.551H184.552L186.759 295.712V294.793H182.345V297.551Z" fill="#FFB400"/>
<path d="M184.552 295.344L182.345 296.448L180.138 295.344V294.241L182.345 293.137L184.552 294.241V295.344Z" fill="#FF4B55"/>
<path d="M203.001 266.042C202.884 265.985 202.777 266.137 202.873 266.227C204.121 267.406 204.911 269.061 204.911 270.906C204.911 274.532 201.996 277.441 198.412 277.441C197.751 277.441 197.114 277.338 196.513 277.15C196.388 277.111 196.308 277.278 196.415 277.353C197.463 278.081 198.725 278.517 200.104 278.517C203.735 278.517 206.702 275.607 206.702 271.929C206.702 269.344 205.185 267.116 203.001 266.042Z" fill="#F5F5F5"/>
<path d="M194.022 270.3L193.752 271.063L194.387 271.566C194.469 271.631 194.421 271.763 194.316 271.761L193.507 271.74L193.225 272.499C193.188 272.597 193.048 272.593 193.018 272.492L192.788 271.716L191.978 271.682C191.873 271.678 191.835 271.543 191.921 271.484L192.588 271.025L192.37 270.245C192.342 270.144 192.458 270.065 192.541 270.129L193.184 270.621L193.858 270.173C193.945 270.114 194.056 270.201 194.022 270.3Z" fill="#F5F5F5"/>
<path d="M197.301 271.956L197.031 272.72L197.666 273.222C197.748 273.287 197.7 273.42 197.596 273.417L196.786 273.396L196.504 274.155C196.468 274.254 196.327 274.249 196.297 274.148L196.067 273.372L195.258 273.339C195.153 273.334 195.114 273.199 195.2 273.14L195.868 272.681L195.649 271.901C195.621 271.8 195.737 271.721 195.821 271.785L196.463 272.278L197.138 271.829C197.225 271.771 197.336 271.857 197.301 271.956Z" fill="#F5F5F5"/>
<path d="M197.268 268.544L196.998 269.308L197.633 269.81C197.715 269.876 197.667 270.008 197.562 270.005L196.753 269.984L196.471 270.743C196.434 270.842 196.294 270.837 196.264 270.737L196.034 269.96L195.224 269.927C195.12 269.923 195.081 269.787 195.167 269.728L195.834 269.269L195.616 268.489C195.588 268.388 195.704 268.309 195.787 268.373L196.43 268.866L197.105 268.417C197.192 268.359 197.303 268.446 197.268 268.544Z" fill="#F5F5F5"/>
<path d="M197.38 265.251L197.11 266.015L197.745 266.517C197.827 266.583 197.779 266.715 197.674 266.712L196.865 266.691L196.583 267.45C196.546 267.549 196.406 267.544 196.376 267.444L196.146 266.667L195.336 266.634C195.231 266.63 195.193 266.494 195.279 266.435L195.946 265.976L195.728 265.196C195.7 265.095 195.816 265.016 195.899 265.08L196.542 265.573L197.216 265.124C197.303 265.066 197.414 265.152 197.38 265.251Z" fill="#F5F5F5"/>
<path d="M200.593 266.907L200.323 267.671L200.958 268.174C201.04 268.239 200.992 268.371 200.887 268.368L200.078 268.347L199.796 269.107C199.759 269.205 199.619 269.2 199.589 269.1L199.359 268.323L198.549 268.29C198.445 268.286 198.406 268.151 198.492 268.091L199.159 267.632L198.941 266.852C198.913 266.751 199.029 266.672 199.112 266.736L199.755 267.229L200.43 266.78C200.517 266.722 200.628 266.809 200.593 266.907Z" fill="#F5F5F5"/>
<path d="M151.896 301.965H90.1035C89.4941 301.965 89 301.471 89 300.862V261.138C89 260.529 89.4941 260.034 90.1035 260.034H151.897C152.506 260.034 153 260.529 153 261.138V300.862C153 301.471 152.506 301.965 151.896 301.965Z" fill="#FF4B55"/>
<path d="M126.244 283.745L134.673 277.56H124.234L121 267.606L117.766 277.56H107.327L115.756 283.745L112.547 293.623L120.992 287.587L121 287.593L121.008 287.587L129.453 293.623L126.244 283.745ZM127.935 279.767L125.525 281.535L124.951 279.767H127.935ZM118.348 282.91L119.369 279.767H122.631L123.652 282.91L121 284.856L118.348 282.91ZM121 274.748L121.914 277.56H120.086L121 274.748ZM114.065 279.767H117.049L116.474 281.535L114.065 279.767ZM116.717 287.929L117.63 285.12L119.119 286.212L116.717 287.929ZM124.37 285.12L125.283 287.929L122.881 286.212L124.37 285.12Z" fill="#5A8250"/>
<path d="M74 259.667H10V302.333H74V259.667Z" fill="#F0F0F0"/>
<path d="M74 259.667H10V273.889H74V259.667Z" fill="#FF9811"/>
<path d="M74 288.111H10V302.333H74V288.111Z" fill="#6DA544"/>
<path d="M41.9999 286.487C45.0303 286.487 47.4869 284.03 47.4869 281C47.4869 277.97 45.0303 275.513 41.9999 275.513C38.9696 275.513 36.5129 277.97 36.5129 281C36.5129 284.03 38.9696 286.487 41.9999 286.487Z" fill="#0052B4"/>
<path d="M42.0001 284.429C43.894 284.429 45.4293 282.894 45.4293 281C45.4293 279.106 43.894 277.571 42.0001 277.571C40.1061 277.571 38.5708 279.106 38.5708 281C38.5708 282.894 40.1061 284.429 42.0001 284.429Z" fill="#F0F0F0"/>
<path d="M42 276.768L43.058 279.168L45.6648 278.884L44.1158 281L45.6648 283.116L43.058 282.832L42 285.232L40.942 282.832L38.3351 283.116L39.8841 281L38.3351 278.884L40.942 279.168L42 276.768Z" fill="#0052B4"/>
<path d="M476.2 184.9H473.9V187.2H476.2V184.9Z" fill="white"/>
<path d="M482.1 184.9H479.8V187.2H482.1V184.9Z" fill="white"/>
<path d="M488.1 184.9H485.8V187.2H488.1V184.9Z" fill="white"/>
<path d="M497.9 217C495.5 217 494.3 216.4 493.2 215.9C492.2 215.4 491.3 215 489.5 215C487.7 215 486.8 215.4 485.8 215.9C484.7 216.4 483.5 217 481.1 217C480.8 217 480.5 217 480.3 217C478.5 216.9 477.4 216.4 476.4 215.9C475.6 215.5 474.9 215.2 473.6 215.1C473.3 215.1 473 215.1 472.7 215.1C470.9 215.1 470 215.5 469 216C467.9 216.5 466.7 217.1 464.3 217.1C461.9 217.1 460.7 216.5 459.6 216C458.7 215.6 457.8 215.2 456.2 215.1V212.8C458.4 212.8 459.5 213.4 460.6 213.9C460.8 214 461 214.1 461.2 214.2L461.8 214.4L459 201.9L465.2 198.8L467.5 183.4C467.9 181.1 469.9 179.3 472.3 179.1H472.6V173H475.6V167H486.6V173H489.6V178.9H489.9C492.3 179.1 494.2 180.9 494.7 183.2L497 198.6L503.2 201.7L500.4 214.2L501 214C501.2 213.9 501.4 213.8 501.6 213.7C502.6 213.2 503.8 212.7 506 212.6V215C504.4 215 503.5 215.4 502.6 215.9C501.5 216.4 500.2 217 497.9 217ZM461.5 203L464.1 214.6H464.4C466.1 214.6 466.9 214.2 467.9 213.7C469 213.2 470.2 212.6 472.6 212.6C474.7 212.6 475.9 213.1 477 213.6L477.3 213.7C478 214 478.6 214.3 479.5 214.5L479.9 214.6V193.9L461.5 203ZM489.4 212.6C491.8 212.6 493 213.2 494.1 213.7C495.1 214.2 495.9 214.5 497.6 214.6H497.9L500.5 203L482.2 193.9V214.5L482.6 214.4C483.5 214.2 484.1 214 484.8 213.6L485.1 213.4C486.1 213.1 487.3 212.6 489.4 212.6ZM494.4 197.4L492.4 183.7C492.1 182.3 490.9 181.3 489.5 181.3H472.5C471.1 181.3 469.9 182.3 469.6 183.7L467.6 197.4L481.1 190.7L494.4 197.4ZM474.8 178.9H487.3V175.3H474.8V178.9ZM477.7 173H484.3V169.4H477.7V173Z" fill="white"/>
<path d="M426 207.5C425.7 207.5 425.5 207.4 425.3 207.3C425.1 207.1 424.9 206.8 424.8 206.5C424.7 206.2 424.8 205.9 425 205.6C428 201.7 429.6 196.8 429.6 192C429.6 179.5 419.5 169.4 407 169.4C401.8 169.4 397 171.1 392.9 174.3C392.7 174.5 392.4 174.6 392.2 174.6C392 174.6 391.9 174.6 391.7 174.5C391.3 174.3 391 173.9 391 173.4V168.2C391 167.6 391.5 167 392.2 167C392.8 167 393.4 167.5 393.4 168.2V171.1L393.9 170.8C397.8 168.3 402.4 167 407.1 167C420.9 167 432.1 178.2 432.1 192C432.1 197.3 430.3 202.7 427 207C426.7 207.3 426.4 207.5 426 207.5Z" fill="white"/>
<path d="M421.8 217C421.2 217 420.6 216.5 420.6 215.8V212.9L420.1 213.2C416.2 215.7 411.6 217 406.9 217C393.1 217 381.9 205.8 381.9 192C381.9 186.7 383.7 181.3 387 177C387.2 176.7 387.6 176.5 387.9 176.5C388.2 176.5 388.4 176.6 388.6 176.7C389.1 177.1 389.2 177.8 388.8 178.3C385.8 182.3 384.2 187.1 384.2 191.9C384.2 204.4 394.3 214.5 406.8 214.5C412 214.5 416.8 212.8 420.9 209.6C421.1 209.4 421.4 209.3 421.6 209.3C421.8 209.3 421.9 209.3 422.1 209.4C422.5 209.6 422.8 210 422.8 210.5V215.7C423 216.4 422.5 217 421.8 217Z" fill="white"/>
<path d="M407 211C406.4 211 405.8 210.5 405.8 209.8V205H405.5C402 204.9 399.8 204.4 398 203.4C395.3 201.8 393.9 199 393.9 194.8C393.9 188 401.5 178 406.1 173.2C406.3 173 406.6 172.8 407 172.8C407.3 172.8 407.6 172.9 407.9 173.2C412.4 178 420.1 188 420.1 194.8C420.1 199 418.8 201.8 416 203.4C414.2 204.4 412 204.9 408.5 205H408.2V209.8C408.2 210.5 407.7 211 407 211ZM406.8 176.1C403.7 179.7 396.4 188.8 396.4 194.9C396.4 199.3 398 200.7 399.3 201.4C401.1 202.4 403.6 202.6 405.6 202.7H405.9V198.3L400.3 192.7C400.1 192.5 400 192.2 400 191.9C400 191.6 400.1 191.3 400.3 191.1C400.5 190.9 400.8 190.8 401.1 190.8C401.4 190.8 401.7 190.9 401.9 191.1L405.8 195V189.4L403.2 186.8C402.7 186.3 402.7 185.6 403.2 185.1C403.4 184.9 403.7 184.8 404 184.8C404.3 184.8 404.6 184.9 404.8 185.1L406.9 187.2L409 185.1C409.2 184.9 409.5 184.8 409.8 184.8C410.1 184.8 410.4 184.9 410.6 185.1C411.1 185.6 411.1 186.3 410.6 186.8L408 189.4V195L411.9 191.1C412.1 190.9 412.4 190.8 412.7 190.8C413 190.8 413.3 190.9 413.5 191.1C413.7 191.3 413.8 191.6 413.8 191.9C413.8 192.2 413.7 192.5 413.5 192.7L407.9 198.3V202.7H408.2C410.2 202.6 412.7 202.5 414.5 201.4C415.7 200.7 417.4 199.2 417.4 194.9C417.4 188.3 408.7 178.1 407 176.1L406.8 175.8V176.1Z" fill="white"/>
<path d="M343.8 211.6H322.1L320.9 216.9L318.6 216.4L321.4 204H315.2V201.7H317.1V172.4H326V169.2H331.7V167.1H334V169.2H339.7V172.4H348.6V201.7H350.5V204H344.3L347.1 216.4L344.8 216.9L343.8 211.6ZM322.7 209.3H343.3L342.1 204H323.9L322.7 209.3ZM319.5 201.7H346.4V174.8H339.8V178H326.1V174.8H319.5V201.7ZM328.4 175.6H337.5V171.6H328.4V175.6Z" fill="white"/>
<path d="M235.3 211.7C234.6 211.7 234.1 211.2 234.1 210.5V179C234.1 178.3 234.6 177.8 235.3 177.8C236 177.8 236.5 178.3 236.5 179V209.3H241.3V198.1C241.3 197.4 241.8 196.9 242.5 196.9H250.5C251.2 196.9 251.7 197.4 251.7 198.1V209.3H255.8V192.6C255.8 191.9 256.3 191.4 257 191.4H265C265.7 191.4 266.2 191.9 266.2 192.6V209.3H270.3V184.9C270.3 184.2 270.8 183.7 271.5 183.7H279.5C280.2 183.7 280.7 184.2 280.7 184.9V209.3H282.7C283.4 209.3 283.9 209.8 283.9 210.5C283.9 211.2 283.4 211.7 282.7 211.7H235.3ZM272.7 209.3H278.3V186.1H272.7V209.3ZM258.2 209.3H263.8V193.8H258.2V209.3ZM243.7 209.3H249.3V199.3H243.7V209.3Z" fill="white"/>
<path d="M242.6 189.5C242.1 189.5 241.7 189.2 241.5 188.8C241.4 188.5 241.4 188.2 241.5 187.9C241.6 187.6 241.8 187.4 242.1 187.2L270 174.9L268.9 172.5C268.9 172.4 268.9 172.4 268.9 172.3C268.9 172.2 269 172.2 269.1 172.2L276.4 173C276.5 173 276.5 173 276.6 173.1C276.6 173.2 276.6 173.2 276.6 173.3L272.3 179.2C272.3 179.2 272.2 179.3 272.1 179.3C272 179.3 272 179.3 271.9 179.2L271 177.1L243.1 189.4C242.9 189.5 242.8 189.5 242.6 189.5Z" fill="white"/>
<path d="M172.2 206.6L169.2 209.6L167.5 207.9L170.5 204.9L160.3 200L164.4 195.9L173.8 195.3L180.9 188.2L160.2 180.1L166.1 174.2L191 178.1L198.7 170.4C199.6 169.5 201.5 168.4 203.4 167.7C204.6 167.3 205.6 167.1 206.5 167.1C207.6 167.1 208.4 167.4 209 168C210.1 169.1 210.2 171.1 209.3 173.7C208.6 175.5 207.5 177.5 206.6 178.4L199 186L202.9 210.9L197 216.8L188.9 196.1L181.7 203.3L181.1 212.7L177 216.8L172.2 206.6ZM173.9 204.8L177.8 212.8L179 211.6L179.6 202.2L204.9 176.8C205.5 176.2 206.4 174.6 207 173C207.6 171.2 207.6 170.1 207.3 169.8C207.2 169.7 206.9 169.6 206.4 169.6C206 169.6 205.2 169.7 204 170.1C202.4 170.7 200.8 171.7 200.2 172.2L174.8 197.6L165.4 198.2L164.2 199.4L172.2 203.3L174.7 200.8L176.4 202.5L173.9 204.8ZM190.7 194.3L197.9 212.6L200.4 210.1L196.9 188.1L190.7 194.3ZM164.4 179.3L182.7 186.5L188.9 180.3L166.9 176.8L164.4 179.3Z" fill="white"/>
<path d="M111 203L101.8 212.2L86.2 216.7L90.8 201L100 191.9L86.1 178.1L97 167.2L110.9 181.1L122.6 169.4C124.1 167.9 126 167.1 128.1 167.1C130.2 167.1 132.1 167.9 133.6 169.4C135.1 170.9 135.9 172.8 135.9 174.9C135.9 177 135.1 178.9 133.6 180.4L121.9 192.1L135.7 206L124.8 216.9L111 203ZM89.4 178.1L124.9 213.6L132.5 206L128.2 201.7L124.6 205.3L122.9 203.6L126.5 200L123.1 196.6L119.5 200.2L117.8 198.5L121.4 194.9L118 191.5L114.4 195.1L112.7 193.4L116.3 189.8L112.9 186.4L109.3 190L107.6 188.3L111.2 184.7L107.8 181.3L104.2 184.9L102.5 183.2L106.1 179.6L102.7 176.2L99.1 179.8L97.4 178.1L101 174.5L96.7 170.2L89.4 178.1ZM89.6 213.3L98.9 210.6L92.4 204L89.6 213.3ZM98.2 206.5L101.2 209.5L109.3 201.4L106.3 198.4L98.2 206.5ZM93.5 201.8L96.5 204.8L104.6 196.7L101.6 193.7L93.5 201.8ZM117.2 187.4L120.2 190.4L127.5 183.1L124.5 180.1L117.2 187.4ZM112.5 182.7L115.5 185.7L122.8 178.4L119.8 175.4L112.5 182.7ZM128 169.5C126.5 169.5 125.2 170.1 124.1 171.1L121.4 173.8L129.1 181.5L131.8 178.8C132.8 177.8 133.4 176.4 133.4 174.9C133.4 173.4 132.9 172.1 131.9 171.1C130.9 170 129.5 169.5 128 169.5Z" fill="white"/>
<path d="M29.8 216.2C25.1 216.2 21.3 212.3 21.3 207.6V201.9H21C15.9 201.2 12 196.7 12 191.5V169.2H16.6V167.8H19V172.9H16.7V171.5H14.4V190.3H30.7V171.5H28.4V172.9H26V167.8H28.3V169.2H33V191.6C33 196.8 29.1 201.3 24 202H23.7V207.7C23.7 211.2 26.5 214 29.9 214H33.6C37 214 39.8 211.2 39.8 207.7V186.7C39.8 181.9 43.6 178.1 48.3 178.1C53 178.1 56.8 182 56.8 186.7V191.6L57 191.7C59.9 192.4 62 195 62 198C62 201.6 59.1 204.4 55.5 204.4C51.9 204.4 49.1 201.5 49.1 198C49.1 195 51.2 192.4 54.1 191.7L54.3 191.6V186.7C54.3 183.2 51.5 180.4 48.1 180.4C44.7 180.4 42 183.1 42 186.6V207.6C42 212.4 38.2 216.2 33.5 216.2H29.8ZM55.5 193.7C53.2 193.7 51.4 195.5 51.4 197.8C51.4 200.1 53.2 201.9 55.5 201.9C57.8 201.9 59.6 200.1 59.6 197.8C59.6 195.6 57.8 193.7 55.5 193.7ZM14.5 193C15.2 196.8 18.6 199.6 22.5 199.6C26.4 199.6 29.7 196.8 30.5 193L30.6 192.6H14.5V193Z" fill="white"/>
<path d="M56.9 196.4H54.1V199.2H56.9V196.4Z" fill="white"/>
<path d="M449.361 132.098V129.269H461.549V123.247L461.041 123.175C444.863 120.273 433.037 106.198 433.037 89.7294C433.037 82.9824 434.996 76.453 438.769 70.8667L441.09 72.4628C437.68 77.6138 435.867 83.5628 435.867 89.7294C435.867 106.924 449.869 120.853 466.99 120.853C473.157 120.853 479.106 119.039 484.257 115.629L485.853 117.951C481.935 120.563 477.582 122.304 473.012 123.175L472.504 123.247V129.269H484.692V132.098H449.361ZM464.451 129.269H469.747V123.61L469.094 123.682C468.441 123.755 467.788 123.755 467.063 123.755C466.41 123.755 465.757 123.755 465.031 123.682L464.378 123.61V129.269H464.451Z" fill="#FFE11E"/>
<path d="M467.063 115.557C452.843 115.557 441.235 103.949 441.235 89.7295C441.235 75.5099 452.843 63.9021 467.063 63.9021C481.282 63.9021 492.89 75.5099 492.89 89.7295C492.89 103.949 481.355 115.557 467.063 115.557ZM447.547 77.6139C445.298 81.2413 444.065 85.4492 444.065 89.7295C444.065 101.482 453.278 111.567 464.959 112.655L465.684 112.728L465.612 112.002C465.467 110.551 464.669 109.681 462.927 107.939C462.274 107.286 462.057 107.069 461.621 106.633L460.969 105.981L461.984 104.965C464.233 102.716 465.104 101.192 464.016 98.9433L461.912 94.7354L452.988 88.7864C450.667 87.2629 449.869 84.1433 451.174 81.7492C451.61 80.9511 451.682 80.008 451.32 79.2099C450.957 78.4119 450.231 77.8315 449.361 77.6139L447.765 77.2511L447.547 77.6139ZM465.757 96.1139L466.555 97.7099C467.933 100.394 467.498 103.006 465.394 105.545L465.031 105.981L465.467 106.416C467.063 108.012 468.441 109.535 468.514 112.075V112.728L469.167 112.655C474.027 112.22 478.525 110.261 482.153 107.069L482.661 106.633L482.153 106.126C480.992 105.11 480.049 104.094 479.469 103.514L479.323 103.369L479.033 103.296C475.914 103.079 473.229 101.265 471.851 98.508C470.4 95.5335 467.571 95.2433 466.482 95.2433H466.337L465.031 94.8805L465.757 96.1139ZM466.627 92.4139C469.965 92.4139 473.012 94.3001 474.463 97.2747C475.478 99.306 477.51 100.539 479.759 100.539H480.629C481.282 101.337 482.298 102.498 484.112 104.167L484.62 104.602L485.055 104.094C486.869 101.773 488.247 99.2335 489.118 96.4041L489.335 95.6786L488.537 95.606C485.853 95.3884 483.894 95.2433 483.314 95.2433C481.645 95.2433 480.267 94.6629 479.323 93.5021C478.09 92.0511 477.51 89.7296 477.872 87.2629C478.018 86.4648 478.38 84.5786 479.469 83.4903C480.774 82.1845 482.951 79.4276 484.547 77.3962L485.563 76.0903L485.272 75.7276C483.749 73.7688 481.935 72.0276 479.831 70.6492L479.106 70.1413L478.888 70.9394C478.743 71.4472 478.525 71.8825 478.235 72.3178C477.002 73.9864 474.68 74.857 471.125 74.857C469.674 74.857 468.441 76.0178 468.441 77.5413V77.759C468.441 79.355 468.441 82.4021 465.612 83.8531C462.492 85.4492 461.839 88.2786 463.653 91.9786L463.798 92.3413V92.4139H463.871L463.943 92.6315L464.016 92.7766L464.161 92.4139H466.627ZM486.578 79.355C485.055 81.3139 482.878 83.9982 481.427 85.4492C480.774 86.1747 480.194 89.0766 480.992 90.8178C481.427 91.8335 482.298 92.3413 483.314 92.3413C483.967 92.3413 486.216 92.4864 489.19 92.7766L489.771 92.8492L489.843 92.2688C489.916 91.3982 489.988 90.6001 489.988 89.7295C489.988 86.1021 489.19 82.6923 487.594 79.4276L487.159 78.557L486.578 79.355ZM467.063 66.7315C460.751 66.7315 454.657 69.4158 450.304 73.9864L449.651 74.7119L450.521 75.0021C452.118 75.5825 453.351 76.7433 453.931 78.3394C454.512 79.9354 454.439 81.6041 453.569 83.1276C452.916 84.2884 453.351 85.7394 454.439 86.4648L459.808 90.0197L459.735 88.7864C459.445 84.2884 462.782 82.1119 464.233 81.3864C465.539 80.7335 465.539 79.2825 465.539 78.1943C465.539 77.9766 465.539 77.759 465.539 77.5413C465.539 74.4943 468.006 72.0276 471.053 72.0276C474.39 72.0276 475.478 71.157 475.841 70.6492C476.131 70.2139 476.204 69.6335 476.059 68.8354L475.986 68.5452L475.696 68.4001C473.012 67.3119 470.11 66.7315 467.063 66.7315Z" fill="white"/>
<path d="M359 103.369C356.533 103.369 354.139 102.426 352.398 100.612C352.108 100.322 351.963 100.031 351.963 99.6687C351.963 99.306 352.108 98.9432 352.398 98.7256C352.688 98.4354 352.978 98.2903 353.341 98.2903C353.704 98.2903 354.067 98.4354 354.284 98.7256C355.518 99.9589 357.186 100.684 358.927 100.684C360.669 100.684 362.337 100.031 363.57 98.7256C363.861 98.4354 364.151 98.2903 364.514 98.2903C364.876 98.2903 365.239 98.4354 365.457 98.7256C365.747 99.0158 365.892 99.306 365.892 99.6687C365.892 100.031 365.747 100.394 365.457 100.612C363.861 102.426 361.467 103.369 359 103.369Z" fill="white"/>
<path d="M327.006 131.373C326.28 131.373 325.627 130.72 325.627 129.994V124.263C325.627 118.676 329.182 113.671 334.406 111.784L347.537 107.069L346.812 106.416C343.475 103.151 341.661 98.7255 341.661 94.0823V78.5569L330.706 75.4372C330.125 75.2921 329.69 74.7118 329.69 74.1314C329.69 73.551 330.125 72.9706 330.706 72.8255L358.637 64.7C358.71 64.6274 358.855 64.6274 359 64.6274C359.145 64.6274 359.29 64.6274 359.363 64.7L387.367 72.8255C387.947 72.9706 388.382 73.551 388.382 74.1314V92.849L388.818 92.9941C390.922 93.7196 392.373 95.751 392.373 98.0725V102.063C392.373 102.788 391.72 103.441 390.994 103.441H383.014C382.288 103.441 381.635 102.788 381.635 102.063V98C381.635 95.751 383.086 93.7196 385.19 92.9216L385.625 92.7765V75.9451L376.339 78.6294V90.0196C376.339 96.4039 374.598 101.845 371.333 105.69C371.116 105.908 370.898 106.125 370.68 106.416L370.027 107.069L383.522 111.784C388.818 113.671 392.373 118.749 392.373 124.335V129.994C392.373 130.72 391.72 131.373 390.994 131.373H327.006ZM360.378 122.449V128.616H389.616V124.335C389.616 119.837 386.786 115.847 382.578 114.396L372.131 110.696L360.378 122.449ZM335.349 114.324C331.214 115.847 328.384 119.837 328.384 124.263V128.616H357.622V122.522L345.724 110.624L335.349 114.324ZM348.625 109.535L359 119.91L369.229 109.68L367.416 109.027L367.125 109.173C364.731 110.551 361.902 111.349 359 111.349C356.025 111.349 353.124 110.551 350.512 109.1L350.294 108.955L348.625 109.535ZM344.418 94.0098C344.418 102.063 350.947 108.592 359 108.592C367.706 108.592 373.582 101.12 373.582 90.0921V88.2784L372.712 88.5686C368.359 90.3098 363.643 91.1804 359 91.1804C354.357 91.1804 349.641 90.2372 345.288 88.5686L344.418 88.2059V94.0098ZM387.004 95.3882C385.553 95.3882 384.392 96.549 384.392 98V100.612H389.616V98C389.616 96.549 388.455 95.3882 387.004 95.3882ZM344.418 85.1588L344.78 85.3039C349.206 87.3353 354.067 88.351 359 88.351C363.861 88.351 368.794 87.2627 373.22 85.3039L373.582 85.1588V79.3549L359.435 83.4176C359.29 83.4176 359.218 83.4902 359.073 83.4902C358.927 83.4902 358.782 83.4902 358.71 83.4176L344.563 79.3549V85.1588H344.418ZM336.075 74.0588L358.927 80.5882L381.925 74.0588L359 67.4569L336.075 74.0588Z" fill="#FFE11E"/>
<path d="M388.818 92.9216L388.382 92.7765V74.1314C388.382 73.551 387.947 72.9706 387.367 72.8255L359.363 64.7C359.29 64.6274 359.145 64.6274 359 64.6274C358.855 64.6274 358.71 64.6274 358.637 64.7L330.706 72.7529C330.125 72.898 329.69 73.4784 329.69 74.0588C329.69 74.6392 330.125 75.2196 330.706 75.3647L341.661 78.4843V86.8274L344.418 88.2059L345.288 88.5686C349.641 90.3098 354.357 91.1804 359 91.1804C363.643 91.1804 368.359 90.2372 372.712 88.5686L373.582 88.2059L376.267 87.1176L376.339 87.4078V78.5569L385.698 75.9451V92.849L385.19 92.9216C383.014 93.647 381.635 95.6784 381.635 98V101.99C381.635 102.716 382.216 103.369 383.014 103.369H390.994C391.72 103.369 392.373 102.716 392.373 101.99V98C392.373 95.751 390.922 93.7196 388.818 92.9216ZM373.582 85.1588L373.22 85.3039C368.794 87.3353 363.933 88.351 359 88.351C354.139 88.351 349.206 87.2627 344.78 85.3039L344.418 85.1588V79.2823L358.565 83.3451C358.71 83.3451 358.782 83.4176 358.927 83.4176C359.073 83.4176 359.218 83.4176 359.29 83.3451L373.437 79.2823V85.1588H373.582ZM359 80.6608L336.147 74.1314L359 67.4569L381.998 74.1314L359 80.6608ZM389.616 100.612H384.392V98C384.392 96.549 385.553 95.3882 387.004 95.3882C388.455 95.3882 389.616 96.549 389.616 98V100.612Z" fill="white"/>
<path d="M255 81.3863C257.684 81.3863 259.861 79.2099 259.861 76.5255C259.571 70.1412 250.429 70.1412 250.212 76.5255C250.212 79.2099 252.388 81.3863 255 81.3863ZM255 74.5667C256.088 74.5667 256.959 75.4373 256.959 76.5255C256.886 79.1373 253.114 79.1373 253.041 76.5255C253.041 75.4373 253.984 74.5667 255 74.5667Z" fill="white"/>
<path d="M287.502 76.8158L255.58 64.7726C255.218 64.6275 254.928 64.6275 254.565 64.7726L222.643 76.8158C222.063 77.0334 221.7 77.5413 221.7 78.1217V86.1021C221.7 86.9001 222.353 87.553 223.151 87.553H225.69V112.51H228.592V95.4609H233.671V112.437H236.573V95.4609H249.631V112.437H252.533V95.4609H257.612V112.437H260.514V95.4609H273.645V112.437H276.547V95.4609H281.626V112.437H284.528V87.4805H287.067C287.865 87.4805 288.518 86.8275 288.518 86.0295V78.0491C288.373 77.5413 288.01 76.9609 287.502 76.8158ZM281.553 92.5589H228.52V87.4805H281.553V92.5589ZM285.543 84.6511H224.529V79.1373L255 67.6021L285.471 79.1373V84.6511H285.543Z" fill="white"/>
<path d="M286.994 128.471H284.455V115.339H281.553V120.563H276.475V115.339H273.573V120.563H260.441V115.339H257.539V120.563H252.461V115.339H249.559V120.563H236.427V115.339H233.526V120.563H228.447V115.339H225.545V128.471H223.006C222.208 128.471 221.555 129.124 221.555 129.922C221.555 130.72 222.208 131.373 223.006 131.373H286.849C288.88 131.3 288.88 128.616 286.994 128.471ZM281.553 128.471H228.52V123.392H281.553V128.471Z" fill="white"/>
<path d="M238.967 115.339H223.079C221.192 115.267 221.192 112.582 223.079 112.437H238.967C240.926 112.51 240.926 115.267 238.967 115.339Z" fill="#FFE11E"/>
<path d="M262.98 115.339H247.092C245.206 115.267 245.206 112.582 247.092 112.437H262.98C264.867 112.51 264.867 115.267 262.98 115.339Z" fill="#FFE11E"/>
<path d="M286.994 115.339H271.106C269.22 115.267 269.22 112.582 271.106 112.437H286.994C288.88 112.51 288.88 115.267 286.994 115.339Z" fill="#FFE11E"/>
<path d="M142.729 85.0863H159.343C161.302 85.0138 161.302 82.1844 159.343 82.1118H142.729C140.771 82.1844 140.771 85.0138 142.729 85.0863Z" fill="#FFE11E"/>
<path d="M170.298 128.471L161.592 113.453C164.131 106.343 158.545 98.5805 151 98.7256C143.455 98.6531 137.941 106.416 140.408 113.453L131.702 128.471C131.412 128.979 131.412 129.559 131.702 129.994C131.992 130.43 132.5 130.72 133.08 130.72L137.071 130.43L138.812 133.984C139.029 134.492 139.61 134.782 140.118 134.782C140.626 134.782 141.133 134.492 141.424 134.057L149.041 120.853C150.275 121.071 151.58 121.071 152.741 120.853L160.359 134.057C160.649 134.492 161.157 134.782 161.665 134.782C162.245 134.782 162.753 134.492 162.971 133.984L164.712 130.43L168.702 130.72C170.08 130.792 170.878 129.486 170.298 128.471ZM140.335 130.212L139.392 128.253C139.102 127.745 138.522 127.382 137.941 127.455L135.765 127.6L142.077 116.645C143.165 118.096 144.616 119.257 146.212 120.055L140.335 130.212ZM148.969 117.806C148.896 117.806 148.824 117.733 148.751 117.733C145.341 116.718 142.875 113.598 142.875 109.898C143.31 99.0158 158.763 99.0158 159.271 109.898C159.271 113.598 156.804 116.718 153.394 117.733C153.322 117.733 153.249 117.806 153.177 117.806C151.798 118.096 150.275 118.096 148.969 117.806ZM164.131 127.382C163.551 127.31 162.971 127.673 162.68 128.181L161.737 130.139L155.861 119.91C157.529 119.112 158.908 117.951 159.996 116.5L166.308 127.455L164.131 127.382Z" fill="#FFE11E"/>
<path d="M160.794 91.9059C160.794 91.1078 160.141 90.3823 159.271 90.3823H142.657C141.859 90.3823 141.133 91.0353 141.133 91.9059C141.133 92.7039 141.786 93.4294 142.657 93.4294H159.271C160.141 93.3568 160.794 92.7039 160.794 91.9059Z" fill="white"/>
<path d="M171.894 105.69C171.894 103.441 173.708 101.627 175.957 101.627C176.755 101.627 177.48 100.974 177.48 100.104V80.8058C177.48 80.0078 176.827 79.2823 175.957 79.2823C173.708 79.2823 171.894 77.4686 171.894 75.2196C171.894 74.4215 171.241 73.696 170.371 73.696H131.629C130.831 73.696 130.106 74.349 130.106 75.2196C130.106 77.4686 128.292 79.2823 126.043 79.2823C125.245 79.2823 124.52 79.9353 124.52 80.8058V100.176C124.52 100.974 125.173 101.7 126.043 101.7C128.292 101.7 130.106 103.514 130.106 105.763C130.106 106.561 130.759 107.286 131.629 107.286H140.19C140.48 106.198 140.843 105.182 141.424 104.312H133.008C132.428 101.627 130.324 99.5235 127.639 98.9431V82.2568C130.324 81.6764 132.428 79.5725 133.008 76.8882H169.065C169.645 79.5725 171.749 81.6764 174.433 82.2568V98.9431C171.749 99.5235 169.645 101.627 169.065 104.312H160.649C161.157 105.255 161.592 106.271 161.882 107.286H170.371C171.241 107.214 171.894 106.561 171.894 105.69Z" fill="white"/>
<path d="M184.373 65.498H117.7C116.902 65.498 116.177 66.151 116.177 67.0216V114.033C116.177 114.831 116.829 115.557 117.7 115.557H139.247L140.48 113.453C140.408 113.163 140.263 112.873 140.19 112.51H119.224V68.4726H182.849V112.51H161.882C161.81 112.8 161.737 113.163 161.592 113.453L162.826 115.557H184.373C185.171 115.557 185.896 114.904 185.896 114.033V67.0216C185.824 66.151 185.171 65.498 184.373 65.498Z" fill="white"/>
<path d="M83.2745 129.559L82.1862 115.121C81.9686 112.437 80.0823 110.261 77.5431 109.608V80.7332C77.5431 79.8627 76.8176 79.2097 76.0196 79.2097H44.098C43.2274 79.2097 42.5745 79.9352 42.5745 80.7332C42.5745 81.5313 43.3 82.2568 44.098 82.2568H74.3509V109.608C71.8117 110.261 69.9254 112.437 69.7078 115.121L68.6196 129.559C68.547 130.429 69.2725 131.227 70.1431 131.227H81.6784C82.6215 131.3 83.347 130.429 83.2745 129.559ZM71.8843 128.108L72.8274 115.412C72.9725 113.816 74.2784 112.51 75.947 112.51C77.5431 112.51 78.9215 113.743 79.0666 115.412L80.0823 128.18L71.8843 128.108Z" fill="#FFE11E"/>
<path d="M68.6921 82.2569L44.098 93.4294L16.0941 80.7334L44.098 68.0373L68.6921 79.1373H75.947C76.2372 79.1373 76.4549 79.2098 76.6725 79.2824C76.6725 79.2098 44.751 64.8451 44.751 64.8451C44.3157 64.6275 43.8804 64.6275 43.4451 64.8451L11.6686 79.2824C11.0882 79.5 10.7255 80.0804 10.7255 80.7334C10.7255 81.3137 11.0882 81.8941 11.6686 82.1843L20.9549 86.3922V104.457C20.9549 106.198 22.2608 108.737 28.3549 110.624C36.6255 113.235 51.498 113.235 59.8411 110.624C66.0078 108.737 67.2412 106.271 67.2412 104.457V86.3196L74.351 83.1275V82.2569H68.6921ZM64.1941 104.384C64.1941 105.037 62.8157 106.343 58.9706 107.576C54.9804 108.737 49.7568 109.39 44.098 109.39C38.4392 109.39 33.2157 108.737 29.298 107.504C25.4529 106.343 24.0745 104.965 24.0745 104.312V87.7706L43.4451 96.549C43.6627 96.6216 43.8804 96.6941 44.098 96.6941C44.3157 96.6941 44.5333 96.6216 44.751 96.549L64.1215 87.7706V104.384H64.1941Z" fill="white"/>
<path d="M23.2765 126.439L19.8667 117.806H16.9647L22.551 131.227H24.002L29.6608 117.806H26.6863L23.2765 126.439Z" fill="white"/>
<path d="M35.1019 117.806H32.4176V130.937H35.1019V117.806Z" fill="white"/>
<path d="M43.9529 122.812C43.1548 122.522 42.647 122.304 42.4293 122.086C42.1391 121.869 42.0666 121.578 42.0666 121.288C42.0666 120.925 42.2117 120.563 42.5019 120.272C42.7921 119.982 43.2274 119.837 43.8078 119.837C44.6058 119.837 45.3313 120.2 45.9117 120.925L45.9842 120.998L47.4352 119.112L47.2176 119.039C46.2019 118.023 44.9685 117.516 43.445 117.516C42.0666 117.516 41.0509 117.878 40.2529 118.676C39.5274 119.402 39.1646 120.345 39.1646 121.433C39.1646 122.449 39.5274 123.32 40.2529 123.9C40.7607 124.335 41.4862 124.698 42.4293 125.061C43.445 125.423 44.098 125.714 44.3882 126.004C44.6784 126.294 44.896 126.657 44.896 127.092C44.896 127.6 44.6784 128.035 44.3882 128.325C44.0254 128.616 43.5901 128.833 43.0097 128.833C42.5019 128.833 41.994 128.688 41.4862 128.398C40.9783 128.108 40.6156 127.672 40.3254 127.092V127.02L38.5842 128.688V128.761C39.745 130.429 41.2685 131.227 43.1548 131.227C44.5333 131.227 45.6215 130.792 46.4921 129.994C47.3627 129.196 47.798 128.108 47.798 126.874C47.798 125.714 47.4352 124.771 46.6372 124.118C46.1293 123.682 45.2587 123.247 43.9529 122.812Z" fill="white"/>
<path d="M57.5196 117.516H55.4882L49.7568 130.937H52.6588L53.8196 128.18H58.9706L60.1313 130.937H63.0333L57.5196 117.516ZM54.6902 126.004L56.4313 121.578L58.1725 126.004H54.6902Z" fill="white"/>
<path d="M644.759 15L649.759 20L644.759 25" stroke="#0A075A" stroke-width="2"/>
<path d="M620.496 18L612.129 25.5852L608.591 21.8951L606.25 24.0385L611.966 30L622.671 20.3043L620.496 18Z" fill="#1A12E6"/>
<path d="M596.25 17.4677C596.25 19.4625 595.47 21.3378 594.053 22.7482L580.544 36.359C579.445 37.453 578.002 38 576.56 38C575.12 38 573.68 37.4539 572.584 36.3627C570.391 34.1784 570.391 30.6257 572.584 28.4423L582.344 18.7801C583.809 17.3304 586.138 17.2828 587.538 18.6746C588.221 19.3551 588.581 20.2736 588.552 21.2622C588.523 22.2292 588.123 23.1459 587.424 23.8413L578.162 33.0629C577.796 33.4279 577.203 33.4279 576.837 33.0629C576.47 32.698 576.47 32.108 576.837 31.743L586.099 22.5214C586.458 22.1639 586.664 21.6972 586.678 21.2071C586.692 20.7385 586.526 20.3072 586.212 19.9945C585.542 19.3299 584.4 19.3775 583.667 20.1037L573.908 29.7641C572.448 31.2184 572.448 33.5875 573.91 35.0428C575.372 36.4981 577.751 36.4981 579.213 35.0428L592.723 21.4321C593.79 20.3698 594.375 18.964 594.375 17.4677C594.375 15.9713 593.79 14.5655 592.728 13.5079C591.665 12.4494 590.253 11.8669 588.75 11.8669C587.247 11.8669 585.835 12.4494 584.772 13.5079L571.598 26.5315C571.229 26.8947 570.637 26.8928 570.272 26.5259C569.908 26.16 569.909 25.5701 570.277 25.206L583.449 12.1852C584.863 10.7766 586.746 10 588.75 10C590.753 10 592.637 10.7766 594.053 12.188C595.47 13.5975 596.25 15.4729 596.25 17.4677Z" fill="#FFE11E"/>
<path d="M544.759 15L549.759 20L544.759 25" stroke="#FFE11E" stroke-width="2"/>
<path d="M429.687 17.8727C429.605 17.7091 429.441 17.5455 429.278 17.4636L423.468 16.6455L420.85 11.3273C420.768 11.1636 420.605 11 420.359 11C420.114 11 419.95 11.0818 419.868 11.3273L417.25 16.6455L411.441 17.4636C411.196 17.4636 411.032 17.6273 411.032 17.8727C410.95 18.0364 411.032 18.2818 411.196 18.4455L415.45 22.5364L414.468 28.3455C414.468 28.5909 414.55 28.7545 414.714 28.9182C414.796 29 414.959 29 415.041 29C415.123 29 415.205 29 415.287 28.9182L420.523 26.1364L425.759 28.9182C425.923 29 426.168 29 426.332 28.8364C426.496 28.6727 426.578 28.5091 426.578 28.2636L425.596 22.4545L429.85 18.3636C429.768 18.2818 429.768 18.1182 429.687 17.8727Z" fill="#FFE11E"/>
<path d="M453.414 17.8727C453.332 17.7091 453.168 17.5455 453.005 17.4636L447.196 16.6455L444.578 11.3273C444.496 11.1636 444.332 11 444.087 11C443.841 11 443.678 11.0818 443.596 11.3273L440.978 16.6455L435.168 17.4636C434.923 17.4636 434.759 17.6273 434.759 17.8727C434.678 18.0364 434.759 18.2818 434.923 18.4455L439.178 22.5364L438.196 28.3455C438.196 28.5909 438.278 28.7545 438.441 28.9182C438.523 29 438.687 29 438.768 29C438.85 29 438.932 29 439.014 28.9182L444.25 26.1364L449.487 28.9182C449.65 29 449.896 29 450.059 28.8364C450.223 28.6727 450.305 28.5091 450.305 28.2636L449.323 22.4545L453.578 18.3636C453.414 18.2818 453.496 18.1182 453.414 17.8727Z" fill="#FFE11E"/>
<path d="M477.141 17.8727C477.059 17.7091 476.896 17.5455 476.732 17.4636L470.923 16.6455L468.305 11.3273C468.223 11.1636 468.059 11 467.814 11C467.568 11 467.405 11.0818 467.323 11.3273L464.705 16.6455L458.896 17.4636C458.65 17.4636 458.487 17.6273 458.487 17.8727C458.405 18.0364 458.487 18.2818 458.65 18.4455L462.905 22.5364L461.923 28.3455C461.923 28.5909 462.005 28.7545 462.168 28.9182C462.25 29 462.414 29 462.496 29C462.578 29 462.659 29 462.741 28.9182L467.978 26.1364L473.214 28.9182C473.378 29 473.623 29 473.787 28.8364C473.95 28.6727 474.032 28.5091 474.032 28.2636L473.05 22.4545L477.305 18.3636C477.141 18.2818 477.223 18.1182 477.141 17.8727Z" fill="#FFE11E"/>
<path d="M500.868 17.8727C500.787 17.7091 500.623 17.5455 500.459 17.4636L494.65 16.6455L492.032 11.3273C491.95 11.1636 491.787 11 491.541 11C491.296 11 491.132 11.0818 491.05 11.3273L488.432 16.6455L482.623 17.4636C482.378 17.4636 482.214 17.6273 482.214 17.8727C482.132 18.0364 482.214 18.2818 482.378 18.4455L486.632 22.5364L485.65 28.3455C485.65 28.5909 485.732 28.7545 485.896 28.9182C485.978 29 486.141 29 486.223 29C486.305 29 486.387 29 486.468 28.9182L491.705 26.1364L496.941 28.9182C497.105 29 497.35 29 497.514 28.8364C497.678 28.6727 497.759 28.5091 497.759 28.2636L496.778 22.4545L501.032 18.3636C500.868 18.2818 500.95 18.1182 500.868 17.8727Z" fill="#FFE11E"/>
<path d="M524.596 17.8727C524.514 17.7091 524.35 17.5455 524.187 17.4636L518.378 16.6455L515.759 11.3273C515.678 11.1636 515.514 11 515.268 11C515.023 11 514.859 11.0818 514.778 11.3273L512.159 16.6455L506.35 17.4636C506.105 17.4636 505.941 17.6273 505.941 17.8727C505.859 18.0364 505.941 18.2818 506.105 18.4455L510.359 22.5364L509.378 28.3455C509.378 28.5909 509.459 28.7545 509.623 28.9182C509.705 29 509.868 29 509.95 29C510.032 29 510.114 29 510.196 28.9182L515.432 26.1364L520.668 28.9182C520.832 29 521.078 29 521.241 28.8364C521.405 28.6727 521.487 28.5091 521.487 28.2636L520.505 22.4545L524.759 18.3636C524.596 18.2818 524.678 18.1182 524.596 17.8727Z" fill="#FFE11E"/>
<path d="M387.556 11L374.308 23.0098L368.706 17.1673L365 20.561L374.051 30L391 14.6484L387.556 11Z" fill="#1A12E6"/>
<path d="M350.5 24L346.603 17.25L354.397 17.25L350.5 24Z" fill="#ACACAC"/>
<path d="M324.733 29.3501C329.897 29.3501 334.083 25.164 334.083 20.0001C334.083 14.8363 329.897 10.6501 324.733 10.6501C319.57 10.6501 315.383 14.8363 315.383 20.0001C315.383 25.164 319.57 29.3501 324.733 29.3501Z" fill="#009EE1"/>
<path d="M324.733 11.6951C329.298 11.6951 333.038 15.4351 333.038 20.0001C333.038 24.5651 329.298 28.3051 324.733 28.3051C320.168 28.3051 316.428 24.5651 316.428 20.0001C316.428 15.4351 320.168 11.6951 324.733 11.6951ZM324.733 10.1001C319.288 10.1001 314.833 14.5551 314.833 20.0001C314.833 25.4451 319.288 29.9001 324.733 29.9001C330.178 29.9001 334.633 25.4451 334.633 20.0001C334.633 14.5551 330.178 10.1001 324.733 10.1001Z" fill="white"/>
<path d="M323.028 21.3752L322.863 23.8502C323.138 23.8502 323.248 23.7402 323.358 23.6302L324.513 22.5302L326.933 24.2902C327.373 24.5652 327.703 24.4002 327.813 23.9052L329.408 16.4252C329.573 15.7652 329.188 15.4902 328.748 15.6552L319.398 19.2302C318.738 19.5052 318.793 19.8352 319.288 20.0002L321.708 20.7702L327.263 17.3052C327.538 17.1402 327.758 17.2502 327.593 17.4152L323.028 21.3752Z" fill="white"/>
<path fill-rule="evenodd" clip-rule="evenodd" d="M305.062 19.945C305.062 24.455 301.377 28.085 296.922 28.085C295.437 28.085 294.007 27.7 292.797 26.93L292.522 26.765L289.442 27.59L290.267 24.565L289.992 24.235C289.167 22.915 288.727 21.43 288.727 19.89C288.782 15.435 292.412 11.75 296.922 11.75C299.122 11.75 301.157 12.575 302.697 14.115C304.237 15.71 305.062 17.745 305.062 19.945Z" fill="#2CB742"/>
<path fill-rule="evenodd" clip-rule="evenodd" d="M301.872 22.2551C301.817 22.1451 301.652 22.0901 301.377 21.9801C301.157 21.8701 299.947 21.2651 299.727 21.2101C299.507 21.1551 299.342 21.1001 299.177 21.3201C299.012 21.5401 298.517 22.1451 298.407 22.2551C298.242 22.4201 298.132 22.4201 297.857 22.3101C297.637 22.2001 296.812 21.9251 295.877 21.1001C295.162 20.4401 294.667 19.6701 294.502 19.3951C294.337 19.1751 294.502 19.0101 294.612 18.9001C294.887 18.5701 295.162 18.2401 295.217 18.0751C295.272 17.9101 295.272 17.7451 295.217 17.6351C295.162 17.5251 294.667 16.3151 294.447 15.8201C294.227 15.3251 294.062 15.3801 293.897 15.3801C293.732 15.3801 293.567 15.3801 293.402 15.3801C293.237 15.3801 292.962 15.4351 292.742 15.7101C292.522 15.9301 291.862 16.5351 291.862 17.7451C291.862 18.9551 292.742 20.1101 292.852 20.2751C292.962 20.4401 294.557 22.9151 297.032 23.9601C297.637 24.2351 298.077 24.3451 298.407 24.4551C299.012 24.6201 299.507 24.6201 299.947 24.5651C300.442 24.5101 301.377 23.9601 301.597 23.4101C301.927 22.8601 301.927 22.3651 301.872 22.2551ZM301.872 22.2551C301.817 22.1451 301.652 22.0901 301.377 21.9801C301.157 21.8701 299.947 21.2651 299.727 21.2101C299.507 21.1551 299.342 21.1001 299.177 21.3201C299.012 21.5401 298.517 22.1451 298.407 22.2551C298.242 22.4201 298.132 22.4201 297.857 22.3101C297.637 22.2001 296.812 21.9251 295.877 21.1001C295.162 20.4401 294.667 19.6701 294.502 19.3951C294.337 19.1751 294.502 19.0101 294.612 18.9001C294.887 18.5701 295.162 18.2401 295.217 18.0751C295.272 17.9101 295.272 17.7451 295.217 17.6351C295.162 17.5251 294.667 16.3151 294.447 15.8201C294.227 15.3251 294.062 15.3801 293.897 15.3801C293.732 15.3801 293.567 15.3801 293.402 15.3801C293.237 15.3801 292.962 15.4351 292.742 15.7101C292.522 15.9301 291.862 16.5351 291.862 17.7451C291.862 18.9551 292.742 20.1101 292.852 20.2751C292.962 20.4401 294.557 22.9151 297.032 23.9601C297.637 24.2351 298.077 24.3451 298.407 24.4551C299.012 24.6201 299.507 24.6201 299.947 24.5651C300.442 24.5101 301.377 23.9601 301.597 23.4101C301.927 22.8601 301.927 22.3651 301.872 22.2551ZM303.852 12.9601C301.982 11.1451 299.507 10.1001 296.922 10.1001C291.532 10.1001 287.132 14.5001 287.132 19.8901C287.132 21.5951 287.572 23.3001 288.452 24.7851L287.022 29.9001L292.247 28.5251C293.677 29.2951 295.272 29.7351 296.922 29.7351C302.312 29.7351 306.712 25.3351 306.712 19.9451C306.712 17.3051 305.722 14.8301 303.852 12.9601ZM296.922 28.0851C295.437 28.0851 294.007 27.7001 292.742 26.9301L292.467 26.7651L289.387 27.5901L290.212 24.5651L289.992 24.2351C289.167 22.9151 288.727 21.4301 288.727 19.8901C288.782 15.4351 292.412 11.7501 296.922 11.7501C299.122 11.7501 301.157 12.5751 302.697 14.1151C304.237 15.6551 305.062 17.6901 305.062 19.8901C305.062 24.4001 301.377 28.0851 296.922 28.0851ZM301.377 21.9801C301.157 21.8701 299.947 21.2651 299.727 21.2101C299.507 21.1551 299.342 21.1001 299.177 21.3201C299.012 21.5401 298.517 22.1451 298.407 22.2551C298.242 22.4201 298.132 22.4201 297.857 22.3101C297.637 22.2001 296.812 21.9251 295.877 21.1001C295.162 20.4401 294.667 19.6701 294.502 19.3951C294.337 19.1751 294.502 19.0101 294.612 18.9001C294.887 18.5701 295.162 18.2401 295.217 18.0751C295.272 17.9101 295.272 17.7451 295.217 17.6351C295.162 17.5251 294.667 16.3151 294.447 15.8201C294.227 15.3251 294.062 15.3801 293.897 15.3801C293.732 15.3801 293.567 15.3801 293.402 15.3801C293.237 15.3801 292.962 15.4351 292.742 15.7101C292.522 15.9301 291.862 16.5351 291.862 17.7451C291.862 18.9551 292.742 20.1101 292.852 20.2751C292.962 20.4401 294.557 22.9151 297.032 23.9601C297.637 24.2351 298.077 24.3451 298.407 24.4551C299.012 24.6201 299.507 24.6201 299.947 24.5651C300.442 24.5101 301.377 23.9601 301.597 23.4101C301.817 22.8601 301.817 22.3651 301.762 22.2551C301.817 22.1451 301.652 22.0901 301.377 21.9801Z" fill="white"/>
<path d="M276.535 21.2101C276.04 25.2251 273.235 25.5001 272.685 25.6651C272.465 25.7201 270.375 26.2701 267.79 26.1051C267.79 26.1051 265.865 28.5251 265.26 29.1301C265.04 29.3501 264.82 29.2951 264.875 28.9101C264.875 28.6351 264.875 25.6101 264.875 25.6101C261.025 24.5101 261.3 20.3851 261.3 18.2401C261.355 16.0951 261.74 14.3351 262.895 13.1801C265.59 10.6501 273.07 11.2551 274.995 13.0151C277.36 15.1051 276.535 20.9901 276.535 21.2101Z" fill="#841FD2"/>
<path d="M276.04 12.025C273.455 9.60498 264.875 9.27498 261.85 12.135C260.475 13.565 259.98 15.6 259.925 18.185C259.87 20.77 259.815 25.555 264.27 26.875V28.855C264.27 28.855 264.215 29.68 264.765 29.845C265.37 30.01 265.645 29.68 267.46 27.48C270.54 27.755 272.905 27.15 273.18 27.04C273.785 26.82 277.305 26.38 277.855 21.54C278.46 16.59 277.58 13.455 276.04 12.025ZM276.535 21.21C276.04 25.225 273.235 25.5 272.685 25.665C272.465 25.72 270.375 26.27 267.79 26.105C267.79 26.105 265.865 28.525 265.26 29.13C265.04 29.35 264.82 29.295 264.875 28.91C264.875 28.635 264.875 25.61 264.875 25.61C261.025 24.51 261.3 20.385 261.3 18.24C261.355 16.095 261.74 14.335 262.895 13.18C265.59 10.65 273.07 11.255 274.995 13.015C277.36 15.105 276.535 20.99 276.535 21.21Z" fill="white"/>
<path d="M273.84 19.0099C273.84 19.3399 273.345 19.3399 273.345 19.0099C273.345 15.8749 271.31 14.1699 268.835 14.1149C268.505 14.1149 268.505 13.6199 268.835 13.6199C271.64 13.6749 273.84 15.6549 273.84 19.0099Z" fill="white"/>
<path d="M272.575 18.5149C272.575 18.8449 272.08 18.8449 272.08 18.5149C272.135 16.8649 271.145 15.5999 269.275 15.4349C268.945 15.4349 269 14.9399 269.33 14.9399C271.475 15.1049 272.63 16.6449 272.575 18.5149Z" fill="white"/>
<path d="M273.455 22.8051C273.07 23.5201 272.3 24.3451 271.53 24.0701C270.76 23.8501 268.89 22.8601 267.735 21.8701C265.26 19.8351 264.435 17.1401 264.05 16.2601C263.775 15.4351 264.6 14.6651 265.315 14.2801C265.645 14.1151 265.975 14.1701 266.195 14.4451C266.415 14.7201 266.8 15.1051 267.405 16.2051C267.625 16.6451 267.515 17.0301 267.24 17.2501L266.8 17.6351C266.58 17.8001 266.58 18.1851 266.58 18.1851C266.58 18.1851 267.24 20.7701 269.715 21.4301C269.715 21.4301 270.045 21.4851 270.21 21.2101L270.595 20.7701C270.76 20.5501 271.2 20.3851 271.585 20.6051C272.135 20.9351 272.85 21.4301 273.29 21.8701C273.565 22.1451 273.62 22.4751 273.455 22.8051Z" fill="white"/>
<path d="M271.365 18.075C271.365 18.405 270.925 18.405 270.87 18.075C270.815 17.25 270.43 16.81 269.66 16.755C269.33 16.755 269.385 16.26 269.66 16.26C270.705 16.37 271.31 16.975 271.365 18.075Z" fill="white"/>
<path d="M130.167 21.6726C130.167 20.7129 130.403 19.768 130.856 18.9217C131.308 18.0754 131.963 17.3538 132.761 16.8209C133.559 16.288 134.476 15.9603 135.431 15.8667C136.386 15.7732 137.35 15.9167 138.236 16.2847C139.123 16.6526 139.904 17.2335 140.513 17.9759C141.121 18.7184 141.536 19.5993 141.722 20.5408C141.908 21.4823 141.859 22.4551 141.58 23.3731C141.3 24.2911 140.798 25.1259 140.118 25.8034L136 29.8333L131.875 25.7992C131.331 25.2586 130.9 24.6155 130.607 23.9072C130.314 23.1988 130.164 22.4393 130.167 21.6726ZM136 27.5L138.947 24.6184C139.529 24.036 139.926 23.294 140.087 22.4862C140.248 21.6784 140.165 20.841 139.851 20.0798C139.536 19.3187 139.003 18.6679 138.318 18.2097C137.634 17.7515 136.829 17.5065 136.005 17.5055C135.181 17.5046 134.376 17.7478 133.69 18.2045C133.005 18.6611 132.47 19.3107 132.154 20.0711C131.837 20.8316 131.753 21.6688 131.912 22.477C132.071 23.2851 132.466 24.028 133.047 24.6117L136 27.5ZM136 19.1668C136.494 19.1668 136.978 19.3134 137.389 19.5881C137.8 19.8628 138.12 20.2533 138.31 20.7101C138.499 21.1669 138.548 21.6696 138.452 22.1545C138.355 22.6394 138.117 23.0849 137.768 23.4345C137.418 23.7841 136.973 24.0222 136.488 24.1187C136.003 24.2152 135.5 24.1657 135.043 23.9764C134.586 23.7872 134.196 23.4668 133.921 23.0557C133.647 22.6446 133.5 22.1612 133.5 21.6668C133.5 21.0037 133.763 20.3679 134.232 19.899C134.701 19.4302 135.337 19.1668 136 19.1668ZM126 18.3718V30H133.789L132.083 28.3334H127.667V18.3693C127.666 18.2428 127.695 18.1179 127.75 18.0042C127.806 17.8904 127.887 17.791 127.987 17.7135L135.487 11.8436C135.633 11.729 135.814 11.6667 136 11.6667C136.186 11.6667 136.367 11.729 136.513 11.8436L144.013 17.7118C144.113 17.7896 144.194 17.8894 144.25 18.0034C144.305 18.1173 144.334 18.2426 144.333 18.3693V28.3334H139.916L138.212 30H146V18.3693C146.001 17.9897 145.915 17.6148 145.749 17.2735C145.582 16.9322 145.34 16.6334 145.041 16.4002L137.541 10.5319C137.101 10.1873 136.558 10 135.999 10C135.44 10 134.897 10.1873 134.457 10.5319L126.957 16.4019C126.658 16.6349 126.416 16.9334 126.25 17.2745C126.084 17.6155 125.999 17.99 126 18.3693V18.3718Z" fill="white"/>
<path d="M230.967 21.6726C230.967 20.7129 231.203 19.768 231.656 18.9217C232.108 18.0754 232.763 17.3538 233.561 16.8209C234.359 16.288 235.276 15.9603 236.231 15.8667C237.186 15.7732 238.15 15.9167 239.036 16.2847C239.923 16.6526 240.705 17.2335 241.313 17.9759C241.921 18.7184 242.336 19.5993 242.522 20.5408C242.709 21.4823 242.66 22.4551 242.38 23.3731C242.1 24.2911 241.598 25.1259 240.918 25.8034L236.8 29.8333L232.675 25.7992C232.131 25.2586 231.7 24.6155 231.407 23.9072C231.114 23.1988 230.964 22.4393 230.967 21.6726ZM236.8 27.5L239.747 24.6184C240.329 24.036 240.726 23.294 240.887 22.4862C241.048 21.6784 240.965 20.841 240.651 20.0798C240.336 19.3187 239.803 18.6679 239.118 18.2097C238.434 17.7515 237.629 17.5065 236.805 17.5055C235.981 17.5046 235.176 17.7478 234.49 18.2045C233.805 18.6611 233.27 19.3107 232.954 20.0711C232.637 20.8316 232.553 21.6688 232.712 22.477C232.871 23.2851 233.266 24.028 233.847 24.6117L236.8 27.5ZM236.8 19.1668C237.294 19.1668 237.778 19.3134 238.189 19.5881C238.6 19.8628 238.92 20.2533 239.11 20.7101C239.299 21.1669 239.348 21.6696 239.252 22.1545C239.155 22.6394 238.917 23.0849 238.568 23.4345C238.218 23.7841 237.773 24.0222 237.288 24.1187C236.803 24.2152 236.3 24.1657 235.843 23.9764C235.386 23.7872 234.996 23.4668 234.721 23.0557C234.447 22.6446 234.3 22.1612 234.3 21.6668C234.3 21.0037 234.563 20.3679 235.032 19.899C235.501 19.4302 236.137 19.1668 236.8 19.1668ZM226.8 18.3718V30H234.589L232.883 28.3334H228.467V18.3693C228.466 18.2428 228.495 18.1179 228.55 18.0042C228.606 17.8904 228.687 17.791 228.787 17.7135L236.287 11.8436C236.433 11.729 236.614 11.6667 236.8 11.6667C236.986 11.6667 237.167 11.729 237.313 11.8436L244.813 17.7118C244.913 17.7896 244.994 17.8894 245.05 18.0034C245.105 18.1173 245.134 18.2426 245.133 18.3693V28.3334H240.717L239.012 30H246.8V18.3693C246.801 17.9897 246.715 17.6148 246.549 17.2735C246.382 16.9322 246.14 16.6334 245.841 16.4002L238.341 10.5319C237.901 10.1873 237.358 10 236.799 10C236.24 10 235.697 10.1873 235.257 10.5319L227.758 16.4019C227.458 16.6349 227.216 16.9334 227.051 17.2745C226.885 17.6155 226.799 17.99 226.8 18.3693V18.3718Z" fill="#1A12E6"/>
<path d="M98 28C93.6 28 90 24.4 90 20C90 15.6 93.6 12 98 12C102.4 12 106 15.6 106 20C106 24.4 102.4 28 98 28ZM101.5 23.3C101 24.4 100.4 25.5 99.6 26.4L99.3 26.7L99.7 26.6C101.5 26.1 103 25 103.9 23.4L104 23.2L101.5 23.3ZM92 23.4C92.9 25 94.4 26.1 96.2 26.6L96.6 26.7L96.3 26.4C95.5 25.5 94.9 24.4 94.4 23.3H94.3H91.8L92 23.4ZM95.7 23.4C96.3 24.5 97 25.6 97.9 26.5L98 26.6H98.1C99 25.6 99.8 24.6 100.3 23.4L100.4 23.2H95.6L95.7 23.4ZM102 18C102.2 18.7 102.3 19.3 102.3 20C102.3 20.7 102.2 21.3 102 22V22.1L102.1 22.2H104.5V22.1C104.9 20.7 104.9 19.3 104.5 17.9V17.8H104.4H101.9L102 18ZM95.1 17.9C94.9 18.6 94.8 19.3 94.8 20C94.8 20.7 94.9 21.4 95.1 22.1V22.2H95.2H100.8V22.1C101 21.4 101.1 20.7 101.1 20C101.1 19.3 101 18.6 100.8 17.9V17.8H100.7L95.1 17.9ZM91.4 17.9C91 19.3 91 20.7 91.4 22V22.1H91.5H94V22C93.8 21.3 93.7 20.6 93.7 19.9C93.7 19.2 93.8 18.6 94 17.9V17.8L93.9 17.7L91.4 17.9ZM99.6 13.5C100.4 14.4 101 15.5 101.5 16.6H101.6H104.1L104 16.4C103 14.9 101.5 13.8 99.8 13.3L99.4 13.2L99.6 13.5ZM97.9 13.3C97 14.3 96.2 15.3 95.7 16.5L95.6 16.7H100.4L100.3 16.5C99.7 15.4 99 14.3 98.1 13.4L97.9 13.3ZM96.2 13.3C94.4 13.8 92.9 14.9 92 16.5L91.9 16.7H94.4C94.9 15.5 95.5 14.5 96.3 13.5L96.6 13.2L96.2 13.3Z" fill="white"/>
<path d="M66.6364 11.8181H53.2727C52 11.8181 51 12.8181 51 14.0908V28.1818H68.8182V14.0908C68.9091 12.8181 67.9091 11.8181 66.6364 11.8181ZM53.2727 13.2727H66.6364C67.0909 13.2727 67.3636 13.6363 67.3636 13.9999V14.5454L61.5455 20.3636C60.6364 21.2727 59.2727 21.2727 58.3636 20.3636L52.5455 14.5454V14.0908C52.5455 13.6363 52.8182 13.2727 53.2727 13.2727ZM52.5455 26.7272V16.7272L57.3636 21.5454C58.8182 22.9999 61.1818 22.9999 62.6364 21.5454L67.4545 16.7272V26.7272H52.5455Z" fill="white"/>
<path d="M21.8182 23.5455C19.3636 22.5455 17.4545 20.5455 16.4545 18.1818L19.2727 15.3636L14.0909 10.0909L11.4545 12.7273C10.5455 13.6364 10 14.9091 10 16.2727C10 22.2727 17.7273 30 23.7273 30C25 30 26.2727 29.4545 27.2727 28.5455L29.9091 25.9091L24.7273 20.7273L21.8182 23.5455ZM26.0909 27.3636C25.4545 28 24.6364 28.2727 23.7273 28.2727C18.5455 28.2727 11.6364 21.3636 11.6364 16.1818C11.6364 15.2727 12 14.4545 12.5455 13.8182L14 12.3636L16.9091 15.2727L14.4545 17.7273L14.6364 18.2727C15.8182 21.5455 18.4545 24.0909 21.6364 25.2727L22.1818 25.4545L24.6364 23L27.5455 25.9091L26.0909 27.3636ZM21.6364 11.6364V10C26.2727 10 30 13.7273 30 18.3636H28.3636C28.3636 14.6364 25.3636 11.6364 21.6364 11.6364ZM21.6364 15V13.3636C24.3636 13.3636 26.6364 15.6364 26.6364 18.3636H25C25 16.4545 23.5455 15 21.6364 15Z" fill="white"/>
<path d="M877 58.0001H901.082L885.027 90H909.109L925.163 58.0001V10H877V58.0001Z" fill="#EEF9FF"/>
<path d="M941.218 10V58.0001H965.299L949.245 90H973.326L989.381 58.0001V10H941.218Z" fill="#EEF9FF"/>
<path opacity="0.3" d="M904 941.307C904 926.377 906.122 914.301 910.367 905.079C914.661 895.809 920.955 888.978 929.25 884.587C937.593 880.196 947.863 878 960.061 878C964.404 878 969.478 878.415 975.284 879.244V901.859C970.405 900.932 965.111 900.468 959.403 900.468C949.742 900.468 942.545 902.591 937.812 906.836C933.08 911.081 930.494 918.009 930.055 927.621H930.933C935.324 919.326 942.374 915.179 952.084 915.179C961.598 915.179 968.966 918.253 974.186 924.401C979.456 930.499 982.09 939.014 982.09 949.943C982.09 961.701 978.773 970.996 972.137 977.827C965.501 984.609 956.231 988 944.326 988C931.689 988 921.809 983.902 914.685 975.705C907.562 967.508 904 956.042 904 941.307ZM943.667 965.092C946.741 965.092 949.23 963.946 951.132 961.653C953.084 959.311 954.06 955.603 954.06 950.528C954.06 941.843 950.693 937.501 943.96 937.501C940.642 937.501 937.934 938.623 935.836 940.868C933.787 943.112 932.762 945.844 932.762 949.065C932.762 953.749 933.763 957.603 935.763 960.628C937.764 963.604 940.398 965.092 943.667 965.092Z" fill="white"/>
<path opacity="0.3" d="M834.308 915.409C840.543 915.409 846.159 916.869 851.157 919.788C856.204 922.658 860.113 926.74 862.884 932.035C865.704 937.33 867.115 943.441 867.115 950.368C867.115 962.492 863.453 971.794 856.13 978.277C848.856 984.759 837.821 988 823.026 988C810.358 988 800.016 986.045 792 982.136V958.088C796.305 960.067 801.154 961.7 806.548 962.987C811.991 964.273 816.667 964.916 820.576 964.916C826.019 964.916 830.201 963.778 833.12 961.502C836.04 959.176 837.499 955.762 837.499 951.259C837.499 947.103 836.015 943.861 833.046 941.536C830.077 939.21 825.574 938.047 819.537 938.047C814.935 938.047 809.962 938.913 804.618 940.645L793.856 935.301L797.938 878H859.841V902.42H822.877L821.541 916.745C825.401 916.003 828.147 915.607 829.78 915.557C831.413 915.458 832.922 915.409 834.308 915.409Z" fill="white"/>
<path opacity="0.3" d="M757.321 966.707H745.208V988H715.865V966.707H672V944.888L717.746 878H745.208V944.512H757.321V966.707ZM715.865 944.512V931.721C715.865 929.313 715.94 926.078 716.09 922.015C716.291 917.902 716.441 915.745 716.542 915.544H715.714C714.009 919.407 712.078 923.018 709.921 926.379L697.732 944.512H715.865Z" fill="white"/>
<path opacity="0.3" d="M978.407 768.737C978.407 775.373 976.382 781.081 972.332 785.863C968.282 790.596 962.427 794.035 954.767 796.182V796.621C972.625 798.866 981.554 807.307 981.554 821.944C981.554 831.898 977.601 839.729 969.697 845.437C961.842 851.146 950.913 854 936.91 854C931.152 854 925.809 853.585 920.882 852.756C916.002 851.926 910.709 850.414 905 848.218V824.213C909.684 826.604 914.441 828.385 919.271 829.556C924.151 830.678 928.639 831.239 932.738 831.239C939.081 831.239 943.692 830.361 946.57 828.604C949.498 826.799 950.961 823.993 950.961 820.188C950.961 817.26 950.205 815.016 948.693 813.454C947.18 811.844 944.741 810.649 941.374 809.868C938.007 809.039 933.616 808.624 928.2 808.624H921.613V786.888H928.347C943.033 786.888 950.376 783.131 950.376 775.617C950.376 772.787 949.278 770.689 947.083 769.323C944.936 767.957 942.033 767.273 938.373 767.273C931.542 767.273 924.468 769.567 917.149 774.153L905.146 754.832C910.806 750.928 916.588 748.147 922.492 746.488C928.444 744.829 935.251 744 942.911 744C953.986 744 962.671 746.196 968.965 750.587C975.259 754.978 978.407 761.028 978.407 768.737Z" fill="white"/>
<path opacity="0.3" d="M868.885 854H790.187V834.715L816.667 807.938C824.233 800.026 829.178 794.636 831.502 791.768C833.826 788.851 835.433 786.353 836.323 784.276C837.263 782.2 837.732 780.024 837.732 777.749C837.732 774.931 836.817 772.705 834.988 771.073C833.158 769.442 830.587 768.626 827.274 768.626C823.862 768.626 820.4 769.615 816.889 771.593C813.428 773.521 809.497 776.389 805.096 780.197L789 761.357C794.588 756.362 799.285 752.802 803.093 750.676C806.901 748.5 811.03 746.843 815.48 745.706C819.98 744.569 825.024 744 830.612 744C837.633 744 843.889 745.236 849.378 747.709C854.916 750.181 859.193 753.717 862.21 758.316C865.276 762.865 866.808 767.983 866.808 773.67C866.808 777.922 866.265 781.853 865.177 785.463C864.138 789.073 862.506 792.633 860.281 796.144C858.056 799.606 855.089 803.265 851.38 807.122C847.721 810.979 839.883 818.298 827.867 829.078V829.819H868.885V854Z" fill="white"/>
<path opacity="0.3" d="M747.555 854H717.384V795.765C717.384 788.692 717.535 782.222 717.836 776.353C715.98 778.61 713.673 780.968 710.914 783.425L698.424 793.733L683 774.773L720.77 744H747.555V854Z" fill="white"/>
<path d="M211.537 11.7747H198.575C197.34 11.7747 196.37 12.7507 196.37 13.9928V27.7456H213.654V13.9928C213.742 12.7507 212.772 11.7747 211.537 11.7747ZM198.575 13.1943H211.537C211.978 13.1943 212.243 13.5492 212.243 13.9041V14.4365L206.599 20.115C205.717 21.0023 204.395 21.0023 203.513 20.115L197.869 14.4365V13.9928C197.869 13.5492 198.134 13.1943 198.575 13.1943ZM197.869 26.3259V16.5659L202.543 21.2685C203.954 22.6881 206.246 22.6881 207.657 21.2685L212.331 16.5659V26.3259H197.869Z" fill="#1A12E6"/>
<path d="M175.464 23.2204C173.083 22.2444 171.231 20.2924 170.261 17.9855L172.995 15.2349L167.968 10.0887L165.411 12.6618C164.529 13.5491 164 14.7913 164 16.1222C164 21.9782 171.495 29.52 177.315 29.52C178.55 29.52 179.785 28.9876 180.755 28.1004L183.312 25.5273L178.285 20.4698L175.464 23.2204ZM179.608 26.9469C178.991 27.568 178.197 27.8342 177.315 27.8342C172.289 27.8342 165.587 21.0909 165.587 16.0335C165.587 15.1462 165.94 14.3476 166.469 13.7265L167.88 12.3069L170.702 15.1462L168.321 17.5418L168.497 18.0742C169.644 21.2684 172.201 23.7527 175.287 24.9062L175.816 25.0836L178.197 22.688L181.019 25.5273L179.608 26.9469ZM175.287 11.5971V10C179.785 10 183.4 13.6378 183.4 18.1629H181.813C181.813 14.5251 178.903 11.5971 175.287 11.5971ZM175.287 14.88V13.2829C177.933 13.2829 180.137 15.5011 180.137 18.1629H178.55C178.55 16.2996 177.139 14.88 175.287 14.88Z" fill="#1A12E6"/>
<defs>
<linearGradient id="paint0_linear_9_434" x1="144.426" y1="380.56" x2="175.541" y2="349.444" gradientUnits="userSpaceOnUse">
<stop stop-color="#FEDA77"/>
<stop offset="0.25" stop-color="#F58529"/>
<stop offset="0.5" stop-color="#DD2A7B"/>
<stop offset="0.75" stop-color="#8134AF"/>
<stop offset="1" stop-color="#515BD4"/>
</linearGradient>
<linearGradient id="paint1_linear_9_434" x1="96.0173" y1="387.004" x2="96.0173" y2="343" gradientUnits="userSpaceOnUse">
<stop stop-color="#FF0000"/>
<stop offset="1" stop-color="#FF3333"/>
</linearGradient>
<linearGradient id="paint2_linear_9_434" x1="32.0019" y1="387.004" x2="32.0019" y2="343" gradientUnits="userSpaceOnUse">
<stop stop-color="#1DA1F2"/>
<stop offset="1" stop-color="#4AB4F5"/>
</linearGradient>
</defs>
</svg>
